<svg width="7" height="15" viewBox="0 0 16 34" fill="none" xmlns="http://www.w3.org/2000/svg">
<path fill-rule="evenodd" clip-rule="evenodd" d="M7.03181 28.2616L7.03175 28.2616C6.90503 28.136 6.77975 28.0118 6.65595 27.889C6.77977 28.0118 6.90507 28.136 7.03181 28.2616ZM2.17117 23.1457L2.94018 22.5281C1.77363 21.0755 1.01002 19.6996 0.806109 18.0998C0.713027 17.3695 0.713027 16.6305 0.806109 15.9002C1.01002 14.3004 1.77363 12.9246 2.94018 11.472C4.07263 10.0619 5.68336 8.46349 7.72621 6.43886L7.72622 6.43885L13.1104 1.10248C13.6061 0.611181 14.4062 0.614751 14.8975 1.11045C15.3888 1.60615 15.3853 2.40628 14.8896 2.89757L9.60066 8.1395C7.47105 10.2502 5.95043 11.76 4.91077 13.0546C3.88711 14.3292 3.43401 15.2722 3.31322 16.2198C3.24719 16.7379 3.24719 17.2622 3.31322 17.7802C3.43401 18.7279 3.88711 19.6709 4.91077 20.9455C5.95043 22.2401 7.47105 23.7499 9.60066 25.8606L14.8896 31.1025C15.3853 31.5938 15.3888 32.3939 14.8975 32.8896C14.4062 33.3853 13.6061 33.3889 13.1104 32.8976L7.72618 27.5612L7.72617 27.5612C5.68333 25.5365 4.07263 23.9382 2.94018 22.5281L2.17117 23.1457Z" fill="#1C1C1C"/>
</svg>
