<svg width="20" height="20" viewBox="0 0 20 20" fill="none" xmlns="http://www.w3.org/2000/svg">
<path d="M17 11.0475V4.16667C17 1.86917 14.757 0 12 0H8C5.243 0 3 1.86917 3 4.16667V11.0475C2.12324 11.3069 1.36424 11.7859 0.827127 12.419C0.290013 13.052 0.00109276 13.808 0 14.5833V19.1667C0 19.3877 0.105357 19.5996 0.292893 19.7559C0.48043 19.9122 0.734783 20 1 20C1.26522 20 1.51957 19.9122 1.70711 19.7559C1.89464 19.5996 2 19.3877 2 19.1667V15.8333H18V19.1667C18 19.3877 18.1054 19.5996 18.2929 19.7559C18.4804 19.9122 18.7348 20 19 20C19.2652 20 19.5196 19.9122 19.7071 19.7559C19.8946 19.5996 20 19.3877 20 19.1667V14.5833C19.9989 13.808 19.71 13.052 19.1729 12.419C18.6358 11.7859 17.8768 11.3069 17 11.0475ZM15 3.5V10.8333H11V1.66667C12.164 2.01083 15 2.41333 15 3.5ZM9 10.8333V1.66667H11V10.8333H9ZM9 1.66667V10.8333H5V3.5C5 2.41333 7.836 2.01083 9 1.66667ZM4.5 12.5H15.5C16.707 12.5 17.717 13.2167 17.95 14.1667H2.05C2.282 13.2167 3.292 12.5 4.5 12.5Z" fill="#1C1C1C"/>
</svg>
