<svg xmlns="http://www.w3.org/2000/svg" width="30" height="30" fill="none"><path fill="#1C1C1C" d="M9.063 5a3.437 3.437 0 0 0-3.438 3.438v1.67A4.064 4.064 0 0 0 2.5 14.063v3.75a3.438 3.438 0 0 0 3.125 3.424v1.576a.937.937 0 0 0 1.875 0V21.25h15v1.563a.938.938 0 0 0 1.875 0v-1.577a3.437 3.437 0 0 0 3.125-3.424v-3.75a4.064 4.064 0 0 0-3.125-3.953V8.438A3.438 3.438 0 0 0 20.937 5H9.063Zm15 14.375H5.938c-.863 0-1.563-.7-1.563-1.563v-3.75a2.187 2.187 0 1 1 4.375 0v.626c0 .517.42.937.938.937h10.624a.938.938 0 0 0 .938-.938v-.624a2.188 2.188 0 0 1 4.375 0v3.75c0 .862-.7 1.562-1.563 1.562ZM22.5 10.109a4.066 4.066 0 0 0-3.113 3.641h-8.774A4.065 4.065 0 0 0 7.5 10.109V8.438c0-.863.7-1.563 1.563-1.563h11.874c.863 0 1.563.7 1.563 1.563v1.67Z"/></svg>