<svg width="30" height="30" fill="none" xmlns="http://www.w3.org/2000/svg"><path d="M22 16.047v-6.88C22 6.869 19.757 5 17 5h-4c-2.757 0-5 1.87-5 4.167v6.88c-.877.26-1.636.739-2.173 1.372-.537.633-.826 1.389-.827 2.164v4.584a.77.77 0 0 0 .293.589c.187.156.442.244.707.244.265 0 .52-.088.707-.244a.77.77 0 0 0 .293-.59v-3.333h16v3.334a.77.77 0 0 0 .293.589c.187.156.442.244.707.244.265 0 .52-.088.707-.244a.77.77 0 0 0 .293-.59v-4.583c-.001-.775-.29-1.531-.827-2.164-.537-.633-1.296-1.112-2.173-1.372ZM20 8.5v7.333h-4V6.667c1.164.344 4 .746 4 1.833Zm-6 7.333V6.667h2v9.166h-2Zm0-9.166v9.166h-4V8.5c0-1.087 2.836-1.49 4-1.833ZM9.5 17.5h11c1.207 0 2.217.717 2.45 1.667H7.05c.232-.95 1.242-1.667 2.45-1.667Z" fill="#1C1C1C"/></svg>