<svg width="2" height="13" viewBox="0 0 2 13" fill="none" xmlns="http://www.w3.org/2000/svg">
<path d="M1.47059 8.87395H0.554622L0.168067 0H1.85714L1.47059 8.87395ZM0 11.4118C0 11.0196 0.0952381 10.7423 0.285714 10.5798C0.47619 10.4118 0.714286 10.3277 1 10.3277C1.28011 10.3277 1.51541 10.4118 1.70588 10.5798C1.90196 10.7423 2 11.0196 2 11.4118C2 11.7983 1.90196 12.0812 1.70588 12.2605C1.51541 12.4342 1.28011 12.521 1 12.521C0.714286 12.521 0.47619 12.4342 0.285714 12.2605C0.0952381 12.0812 0 11.7983 0 11.4118Z" fill="#E62424"/>
</svg>
