<svg width="28" height="28" fill="none" xmlns="http://www.w3.org/2000/svg"><path d="M24.761 19.196a.427.427 0 0 1-.44 0 .449.449 0 0 1-.16-.168l-2.323-4.23a12.949 12.949 0 0 1-4.602 2.233l.717 4.436a.472.472 0 0 1-.076.341.437.437 0 0 1-.359.192.43.43 0 0 1-.283-.108.462.462 0 0 1-.15-.274l-.703-4.4c-1.573.28-3.18.28-4.753 0l-.704 4.4a.462.462 0 0 1-.151.276.429.429 0 0 1-.361.1.437.437 0 0 1-.286-.186.472.472 0 0 1-.076-.34l.712-4.44a12.947 12.947 0 0 1-4.601-2.23l-2.323 4.23a.449.449 0 0 1-.16.167.427.427 0 0 1-.57-.117.465.465 0 0 1-.087-.338.47.47 0 0 1 .055-.17l2.381-4.336a16.64 16.64 0 0 1-2.341-2.465.46.46 0 0 1-.116-.344.471.471 0 0 1 .163-.323.434.434 0 0 1 .338-.096.429.429 0 0 1 .298.191c1.882 2.425 5.18 5.316 10.2 5.316s8.318-2.891 10.2-5.317a.449.449 0 0 1 .298-.191.42.42 0 0 1 .338.096.454.454 0 0 1 .163.323.475.475 0 0 1-.116.344 16.642 16.642 0 0 1-2.341 2.464l2.38 4.339a.47.47 0 0 1-.16.625Z" fill="#B5B3B2"/></svg>