<svg width="51" height="59" fill="none" xmlns="http://www.w3.org/2000/svg"><path d="M7.831 1.937h35.251V26.4H7.832V1.937Zm35.251 50.126H7.832V47.5h35.25v4.563Z" fill="#fff"/><path d="M44.913 26.4V.968c0-.532-.412-.968-.915-.968H6.916C6.412 0 6 .436 6 .968V26.4h1.831V1.937h35.251V26.4h1.831ZM6 47.5v5.532c0 .532.412.968.916.968h37.082c.503 0 .915-.436.915-.968V47.5h-1.831v4.563H7.832V47.5H6Z" fill="#00A651"/><path d="M38.962 8.961h-27.01a.891.891 0 0 1-.648-.284.998.998 0 0 1-.268-.684c0-.257.096-.504.268-.685a.891.891 0 0 1 .647-.284h27.01c.243 0 .476.102.648.284a.998.998 0 0 1 .268.685.998.998 0 0 1-.268.684.891.891 0 0 1-.647.284Zm0 6.78h-27.01a.89.89 0 0 1-.648-.285.997.997 0 0 1-.268-.684c0-.257.096-.504.268-.685a.891.891 0 0 1 .647-.284h27.01c.243 0 .476.102.648.284a.997.997 0 0 1 .268.685.997.997 0 0 1-.268.684.89.89 0 0 1-.647.284Zm0 6.778h-27.01a.891.891 0 0 1-.648-.284.997.997 0 0 1-.268-.684c0-.257.096-.503.268-.685a.891.891 0 0 1 .647-.284h27.01c.243 0 .476.102.648.284a.998.998 0 0 1 .268.685.997.997 0 0 1-.268.684.891.891 0 0 1-.647.284Z" fill="#00A651"/><rect x="5" y="27" width="46" height="20" rx="1" fill="#00A651"/><path d="m15.44 31.64 2.464 3.92 2.463-3.92h2.848l-3.76 5.76 3.633 5.6h-2.849l-2.335-3.76L15.568 43h-2.864l3.631-5.6-3.76-5.76h2.865ZM24.197 43V31.64h2.624v9.056h5.504V43h-8.128Zm16.176-8.032c-.032-.053-.144-.133-.336-.24a6.972 6.972 0 0 0-1.664-.704 3.767 3.767 0 0 0-1.024-.144c-.448 0-.795.08-1.04.24-.246.15-.368.384-.368.704 0 .256.09.459.272.608.192.15.464.283.816.4.352.107.784.235 1.296.384a9.208 9.208 0 0 1 1.888.704c.533.267.938.613 1.216 1.04.288.427.432.992.432 1.696 0 .64-.118 1.184-.352 1.632a2.994 2.994 0 0 1-.96 1.072 4.243 4.243 0 0 1-1.36.592 7.07 7.07 0 0 1-1.584.176 9.56 9.56 0 0 1-1.712-.16 10.665 10.665 0 0 1-1.664-.48 7.995 7.995 0 0 1-1.472-.768l1.152-2.288c.042.053.181.155.416.304.234.139.522.288.864.448.352.15.741.283 1.168.4.426.117.858.176 1.296.176.47 0 .816-.075 1.04-.224a.702.702 0 0 0 .352-.624.76.76 0 0 0-.368-.672c-.235-.16-.56-.304-.976-.432-.406-.128-.875-.272-1.408-.432-.694-.213-1.27-.453-1.728-.72-.448-.267-.784-.592-1.008-.976-.214-.384-.32-.864-.32-1.44 0-.8.186-1.472.56-2.016.384-.555.896-.97 1.536-1.248a5.048 5.048 0 0 1 2.096-.432c.533 0 1.045.064 1.536.192a8.53 8.53 0 0 1 1.392.48c.437.192.826.384 1.168.576l-1.152 2.176Z" fill="#fff"/><circle cx="7.99" cy="52.032" r="3.5" transform="rotate(-170.445 7.99 52.032)" fill="#00A651"/><path d="m6 54-2 4M5 53.5l-4 1" stroke="#00A651" stroke-linecap="round"/><circle cx="7.99" cy="52.032" r="2.5" transform="rotate(-170.445 7.99 52.032)" fill="#fff"/></svg>