<svg width="51" height="59" fill="none" xmlns="http://www.w3.org/2000/svg"><path d="M7.831 1.937h35.251V26.4H7.832V1.937Zm35.251 50.126H7.832V47.5h35.25v4.563Z" fill="#fff"/><path d="M44.913 26.4V.968c0-.532-.412-.968-.915-.968H6.916C6.412 0 6 .436 6 .968V26.4h1.831V1.937h35.251V26.4h1.831ZM6 47.5v5.532c0 .532.412.968.916.968h37.082c.503 0 .915-.436.915-.968V47.5h-1.831v4.563H7.832V47.5H6Z" fill="#EBEBEB"/><path d="M38.962 8.961h-27.01a.891.891 0 0 1-.648-.284.998.998 0 0 1-.268-.684c0-.257.096-.504.268-.685a.891.891 0 0 1 .647-.284h27.01c.243 0 .476.102.648.284a.998.998 0 0 1 .268.685.998.998 0 0 1-.268.684.891.891 0 0 1-.647.284Zm0 6.78h-27.01a.89.89 0 0 1-.648-.285.997.997 0 0 1-.268-.684c0-.257.096-.504.268-.685a.891.891 0 0 1 .647-.284h27.01c.243 0 .476.102.648.284a.997.997 0 0 1 .268.685.997.997 0 0 1-.268.684.89.89 0 0 1-.647.284Zm0 6.778h-27.01a.891.891 0 0 1-.648-.284.997.997 0 0 1-.268-.684c0-.257.096-.503.268-.685a.891.891 0 0 1 .647-.284h27.01c.243 0 .476.102.648.284a.998.998 0 0 1 .268.685.997.997 0 0 1-.268.684.891.891 0 0 1-.647.284Z" fill="#EBEBEB"/><rect x="5" y="27" width="46" height="20" rx="1" fill="#455A64"/><path d="M12.666 43V31.64h7.712v2.304H15.29v2.448h4.192v2.128H15.29V43h-2.624Zm9.11 0V31.64h2.623V43h-2.623Zm4.796 0V31.64h2.624v9.056H34.7V43h-8.128Zm17.344-2.304V43h-7.984V31.64h7.84v2.304h-5.216v2.208h4.48v2.128h-4.48v2.416h5.36Z" fill="#fff"/><circle cx="7.99" cy="52.032" r="3.5" transform="rotate(-170.445 7.99 52.032)" fill="#EBEBEB"/><path d="m6 54-2 4M5 53.5l-4 1" stroke="#EBEBEB" stroke-linecap="round"/><circle cx="7.99" cy="52.032" r="2.5" transform="rotate(-170.445 7.99 52.032)" fill="#fff"/></svg>