<svg width="51" height="59" fill="none" xmlns="http://www.w3.org/2000/svg"><path d="M7.831 1.937h35.251V26.4H7.832V1.937Zm35.251 50.126H7.832V47.5h35.25v4.563Z" fill="#fff"/><path d="M44.913 26.4V.968c0-.532-.412-.968-.915-.968H6.916C6.412 0 6 .436 6 .968V26.4h1.831V1.937h35.251V26.4h1.831ZM6 47.5v5.532c0 .532.412.968.916.968h37.082c.503 0 .915-.436.915-.968V47.5h-1.831v4.563H7.832V47.5H6Z" fill="#00AEEF"/><path d="M38.962 8.961h-27.01a.891.891 0 0 1-.648-.284.998.998 0 0 1-.268-.684c0-.257.096-.504.268-.685a.891.891 0 0 1 .647-.284h27.01c.243 0 .476.102.648.284a.998.998 0 0 1 .268.685.998.998 0 0 1-.268.684.891.891 0 0 1-.647.284Zm0 6.78h-27.01a.89.89 0 0 1-.648-.285.997.997 0 0 1-.268-.684c0-.257.096-.504.268-.685a.891.891 0 0 1 .647-.284h27.01c.243 0 .476.102.648.284a.997.997 0 0 1 .268.685.997.997 0 0 1-.268.684.89.89 0 0 1-.647.284Zm0 6.778h-27.01a.891.891 0 0 1-.648-.284.997.997 0 0 1-.268-.684c0-.257.096-.503.268-.685a.891.891 0 0 1 .647-.284h27.01c.243 0 .476.102.648.284a.998.998 0 0 1 .268.685.997.997 0 0 1-.268.684.891.891 0 0 1-.647.284Z" fill="#00AEEF"/><rect x="5" y="27" width="46" height="20" rx="1" fill="#00AEEF"/><path d="M11.775 43V31.64h4.24c1.248 0 2.288.256 3.12.768a4.828 4.828 0 0 1 1.904 2.048c.427.853.64 1.803.64 2.848 0 1.152-.234 2.155-.703 3.008a4.934 4.934 0 0 1-1.985 1.984c-.842.47-1.834.704-2.976.704h-4.24Zm7.232-5.696c0-.661-.117-1.243-.352-1.744a2.652 2.652 0 0 0-1.024-1.184c-.448-.288-.986-.432-1.616-.432H14.4v6.752h1.617c.64 0 1.178-.144 1.616-.432.447-.299.789-.704 1.023-1.216a4.21 4.21 0 0 0 .352-1.744Zm9.198 5.792c-.854 0-1.627-.16-2.32-.48a5.872 5.872 0 0 1-1.776-1.312 6.171 6.171 0 0 1-1.136-1.856 5.925 5.925 0 0 1-.4-2.144c0-.757.138-1.477.416-2.16a6.105 6.105 0 0 1 1.184-1.824 5.513 5.513 0 0 1 4.08-1.744c.842 0 1.605.165 2.288.496.693.32 1.285.757 1.776 1.312a5.959 5.959 0 0 1 1.152 1.872c.266.683.4 1.381.4 2.096 0 .757-.139 1.477-.416 2.16a5.909 5.909 0 0 1-1.184 1.84 5.917 5.917 0 0 1-1.808 1.28 5.403 5.403 0 0 1-2.256.464Zm-2.96-5.76c0 .437.064.864.192 1.28.128.405.314.768.56 1.088a2.76 2.76 0 0 0 2.224 1.056c.501 0 .938-.096 1.312-.288.373-.203.682-.47.928-.8.245-.33.426-.699.544-1.104a4.275 4.275 0 0 0 0-2.528 3.33 3.33 0 0 0-.576-1.088 2.634 2.634 0 0 0-.944-.768 2.856 2.856 0 0 0-1.264-.272c-.502 0-.939.096-1.312.288a2.848 2.848 0 0 0-.928.784c-.246.32-.432.688-.56 1.104a4.467 4.467 0 0 0-.176 1.248Zm9.484-.112c0-.693.128-1.37.384-2.032a5.77 5.77 0 0 1 1.12-1.824 5.374 5.374 0 0 1 1.792-1.296c.704-.33 1.504-.496 2.4-.496 1.067 0 1.99.23 2.768.688.79.459 1.376 1.056 1.76 1.792l-2.016 1.408c-.17-.405-.4-.72-.688-.944a2.38 2.38 0 0 0-.928-.464 3.438 3.438 0 0 0-.96-.144c-.502 0-.939.101-1.312.304a2.643 2.643 0 0 0-.928.784c-.245.33-.427.699-.544 1.104-.117.405-.176.81-.176 1.216 0 .448.07.88.208 1.296.139.416.336.784.592 1.104.267.32.587.576.96.768.373.181.784.272 1.232.272.32 0 .645-.053.976-.16a2.82 2.82 0 0 0 .912-.496 2.21 2.21 0 0 0 .656-.912l2.144 1.264a3.383 3.383 0 0 1-1.104 1.424 5.78 5.78 0 0 1-1.744.912 6.28 6.28 0 0 1-1.904.304 5.209 5.209 0 0 1-2.272-.496 5.965 5.965 0 0 1-1.776-1.344 6.6 6.6 0 0 1-1.152-1.888 6.008 6.008 0 0 1-.4-2.144Z" fill="#fff"/><circle cx="7.99" cy="52.032" r="3.5" transform="rotate(-170.445 7.99 52.032)" fill="#00AEEF"/><path d="m6 54-2 4M5 53.5l-4 1" stroke="#00AEEF" stroke-linecap="round"/><circle cx="7.99" cy="52.032" r="2.5" transform="rotate(-170.445 7.99 52.032)" fill="#fff"/></svg>