<svg width="51" height="59" fill="none" xmlns="http://www.w3.org/2000/svg"><path d="M7.831 1.937h35.251V26.4H7.832V1.937Zm35.251 50.126H7.832V47.5h35.25v4.563Z" fill="#fff"/><path d="M44.913 26.4V.968c0-.532-.412-.968-.915-.968H6.916C6.412 0 6 .436 6 .968V26.4h1.831V1.937h35.251V26.4h1.831ZM6 47.5v5.532c0 .532.412.968.916.968h37.082c.503 0 .915-.436.915-.968V47.5h-1.831v4.563H7.832V47.5H6Z" fill="#909090"/><path d="M38.962 8.961h-27.01a.891.891 0 0 1-.648-.284.998.998 0 0 1-.268-.684c0-.257.096-.504.268-.685a.891.891 0 0 1 .647-.284h27.01c.243 0 .476.102.648.284a.998.998 0 0 1 .268.685.998.998 0 0 1-.268.684.891.891 0 0 1-.647.284Zm0 6.78h-27.01a.89.89 0 0 1-.648-.285.997.997 0 0 1-.268-.684c0-.257.096-.504.268-.685a.891.891 0 0 1 .647-.284h27.01c.243 0 .476.102.648.284a.997.997 0 0 1 .268.685.997.997 0 0 1-.268.684.89.89 0 0 1-.647.284Zm0 6.778h-27.01a.891.891 0 0 1-.648-.284.997.997 0 0 1-.268-.684c0-.257.096-.503.268-.685a.891.891 0 0 1 .647-.284h27.01c.243 0 .476.102.648.284a.998.998 0 0 1 .268.685.997.997 0 0 1-.268.684.891.891 0 0 1-.647.284Z" fill="#909090"/><rect x="5" y="27" width="46" height="20" rx="1" fill="#909090"/><path d="M22.096 33.944H18.64V43h-2.624v-9.056h-3.472V31.64h9.552v2.304Zm2.945-2.304 2.464 3.92 2.464-3.92h2.848l-3.76 5.76L32.69 43h-2.848l-2.336-3.76L25.17 43h-2.864l3.632-5.6-3.76-5.76h2.864Zm17.414 2.304h-3.456V43h-2.624v-9.056h-3.472V31.64h9.552v2.304Z" fill="#fff"/><circle cx="7.99" cy="52.032" r="3.5" transform="rotate(-170.445 7.99 52.032)" fill="#909090"/><path d="m6 54-2 4M5 53.5l-4 1" stroke="#909090" stroke-linecap="round"/><circle cx="7.99" cy="52.032" r="2.5" transform="rotate(-170.445 7.99 52.032)" fill="#fff"/></svg>