<svg width="24" height="32" viewBox="0 0 24 32" fill="none" xmlns="http://www.w3.org/2000/svg">
<path fill-rule="evenodd" clip-rule="evenodd" d="M24 9V28C24 29.0609 23.5786 30.0783 22.8284 30.8284C22.0783 31.5786 21.0609 32 20 32H18V30H20C20.5304 30 21.0391 29.7893 21.4142 29.4142C21.7893 29.0391 22 28.5304 22 28V9H18C17.2044 9 16.4413 8.68393 15.8787 8.12132C15.3161 7.55871 15 6.79565 15 6V2H4C3.46957 2 2.96086 2.21071 2.58579 2.58579C2.21071 2.96086 2 3.46957 2 4V32H0V4C0 2.93913 0.421427 1.92172 1.17157 1.17157C1.92172 0.421427 2.93913 0 4 0L15 0L24 9Z" fill="black"/>
<path d="M2 31H18" stroke="black" stroke-width="2"/>
</svg>
