<svg width="51" height="59" fill="none" xmlns="http://www.w3.org/2000/svg"><path d="M7.831 1.937h35.251V26.4H7.832V1.937Zm35.251 50.126H7.832V47.5h35.25v4.563Z" fill="#fff"/><path d="M44.913 26.4V.968c0-.532-.412-.968-.915-.968H6.916C6.412 0 6 .436 6 .968V26.4h1.831V1.937h35.251V26.4h1.831ZM6 47.5v5.532c0 .532.412.968.916.968h37.082c.503 0 .915-.436.915-.968V47.5h-1.831v4.563H7.832V47.5H6Z" fill="#CD4527"/><path d="M38.962 8.961h-27.01a.891.891 0 0 1-.648-.284.998.998 0 0 1-.268-.684c0-.257.096-.504.268-.685a.891.891 0 0 1 .647-.284h27.01c.243 0 .476.102.648.284a.998.998 0 0 1 .268.685.998.998 0 0 1-.268.684.891.891 0 0 1-.647.284Zm0 6.78h-27.01a.89.89 0 0 1-.648-.285.997.997 0 0 1-.268-.684c0-.257.096-.504.268-.685a.891.891 0 0 1 .647-.284h27.01c.243 0 .476.102.648.284a.997.997 0 0 1 .268.685.997.997 0 0 1-.268.684.89.89 0 0 1-.647.284Zm0 6.778h-27.01a.891.891 0 0 1-.648-.284.997.997 0 0 1-.268-.684c0-.257.096-.503.268-.685a.891.891 0 0 1 .647-.284h27.01c.243 0 .476.102.648.284a.998.998 0 0 1 .268.685.997.997 0 0 1-.268.684.891.891 0 0 1-.647.284Z" fill="#CD4527"/><rect x="5" y="27" width="46" height="20" rx="1" fill="#CD4527"/><path d="M13.322 43V31.64h4.848c.544 0 1.04.112 1.488.336.459.213.854.507 1.184.88.331.363.587.773.768 1.232a3.8 3.8 0 0 1 .272 1.408c0 .65-.154 1.27-.464 1.856a3.825 3.825 0 0 1-1.264 1.44c-.533.363-1.168.544-1.904.544h-2.304V43h-2.624Zm2.624-5.952h2.144c.203 0 .39-.059.56-.176.171-.117.31-.293.416-.528.107-.235.16-.523.16-.864 0-.352-.064-.64-.192-.864a1.15 1.15 0 0 0-.464-.512 1.118 1.118 0 0 0-.576-.16h-2.048v3.104ZM23.291 43V31.64h4.24c1.248 0 2.288.256 3.12.768a4.828 4.828 0 0 1 1.904 2.048c.427.853.64 1.803.64 2.848 0 1.152-.234 2.155-.704 3.008a4.933 4.933 0 0 1-1.984 1.984c-.843.47-1.835.704-2.976.704h-4.24Zm7.232-5.696c0-.661-.117-1.243-.352-1.744a2.652 2.652 0 0 0-1.024-1.184c-.448-.288-.986-.432-1.616-.432h-1.616v6.752h1.616c.64 0 1.179-.144 1.616-.432.448-.299.79-.704 1.024-1.216a4.21 4.21 0 0 0 .352-1.744ZM34.744 43V31.64h7.712v2.304h-5.088v2.448h4.192v2.128h-4.192V43h-2.624Z" fill="#fff"/><circle cx="7.99" cy="52.032" r="3.5" transform="rotate(-170.445 7.99 52.032)" fill="#CD4527"/><path d="m6 54-2 4M5 53.5l-4 1" stroke="#CD4527" stroke-linecap="round"/><circle cx="7.99" cy="52.032" r="2.5" transform="rotate(-170.445 7.99 52.032)" fill="#fff"/></svg>