<svg xmlns="http://www.w3.org/2000/svg" width="30" height="30" fill="none"><path fill="#1C1C1C" d="M15 2.5c6.904 0 12.5 5.596 12.5 12.5S21.904 27.5 15 27.5a12.45 12.45 0 0 1-5.734-1.39l-4.782 1.334a1.563 1.563 0 0 1-1.925-1.925l1.335-4.779A12.45 12.45 0 0 1 2.5 15C2.5 8.096 8.096 2.5 15 2.5Zm0 1.875A10.625 10.625 0 0 0 4.375 15c0 1.837.466 3.604 1.341 5.171l.188.338-1.39 4.98 4.984-1.39.337.187A10.626 10.626 0 1 0 15 4.375Zm0 15a1.25 1.25 0 1 1 0 2.5 1.25 1.25 0 0 1 0-2.5Zm0-10.938a3.438 3.438 0 0 1 3.438 3.438c0 1.262-.372 1.967-1.314 2.949l-.211.213c-.778.778-.976 1.108-.976 1.838a.938.938 0 0 1-1.874 0c0-1.262.37-1.967 1.313-2.949l.212-.213c.777-.778.975-1.108.975-1.838a1.562 1.562 0 0 0-3.117-.16l-.008.16a.938.938 0 0 1-1.876 0A3.438 3.438 0 0 1 15 8.437Z"/></svg>