<svg width="28" height="28" fill="none" xmlns="http://www.w3.org/2000/svg"><g clip-path="url(#a)"><path d="M26.943 13.235c-.038-.085-.954-2.095-3.001-4.12C22.042 7.238 18.779 5 14 5 9.22 5 5.958 7.238 4.058 9.115c-2.047 2.025-2.963 4.032-3 4.12a.648.648 0 0 0 0 .532c.037.084.953 2.095 3 4.12C5.958 19.762 9.221 22 14 22c4.78 0 8.043-2.237 9.942-4.114 2.047-2.024 2.963-4.032 3-4.119a.649.649 0 0 0 0-.532ZM14 20.692c-3.457 0-6.476-1.244-8.973-3.697a14.699 14.699 0 0 1-2.63-3.495 14.675 14.675 0 0 1 2.63-3.494C7.524 7.552 10.543 6.308 14 6.308c3.457 0 6.476 1.244 8.973 3.698a14.673 14.673 0 0 1 2.63 3.494C24.9 14.83 21.38 20.692 14 20.692Zm0-12.205a5.108 5.108 0 0 0-2.816.845 5.025 5.025 0 0 0-1.866 2.25 4.962 4.962 0 0 0-.288 2.896 4.996 4.996 0 0 0 1.386 2.567 5.084 5.084 0 0 0 2.595 1.371 5.119 5.119 0 0 0 2.928-.285 5.057 5.057 0 0 0 2.275-1.846 4.975 4.975 0 0 0 .854-2.785 4.992 4.992 0 0 0-1.486-3.543A5.103 5.103 0 0 0 14 8.487Zm0 8.718c-.74 0-1.465-.217-2.081-.624a3.714 3.714 0 0 1-1.38-1.663 3.667 3.667 0 0 1-.213-2.14 3.692 3.692 0 0 1 1.025-1.898 3.759 3.759 0 0 1 1.918-1.014 3.784 3.784 0 0 1 2.165.21c.684.281 1.269.756 1.68 1.365a3.677 3.677 0 0 1-.465 4.679A3.767 3.767 0 0 1 14 17.205Z" fill="#000"/></g><defs><clipPath id="a"><path fill="#fff" d="M0 0h28v28H0z"/></clipPath></defs></svg>