<svg width="1em" height="1em" viewBox="0 0 24 24" fill="none" xmlns="http://www.w3.org/2000/svg">
  <path
    d="M21.44 11.05L12.25 20.24C11.1241 21.3659 9.59717 21.9984 8.00499 21.9984C6.4128 21.9984 4.88583 21.3659 3.75998 20.24C2.63414 19.1142 2.00165 17.5872 2.00165 15.995C2.00165 14.4029 2.63414 12.8759 3.75998 11.75L12.95 2.56004C13.7005 1.80948 14.7185 1.38782 15.78 1.38782C16.8414 1.38782 17.8594 1.80948 18.61 2.56004C19.3606 3.3106 19.7822 4.32859 19.7822 5.39004C19.7822 6.4515 19.3606 7.46948 18.61 8.22004L9.40999 17.41C9.0347 17.7853 8.52571 17.9962 7.99499 17.9962C7.46426 17.9962 6.95527 17.7853 6.57999 17.41C6.2047 17.0348 5.99387 16.5258 5.99387 15.995C5.99387 15.4643 6.2047 14.9553 6.57999 14.58L15.07 6.10004"
    stroke="currentColor" stroke-linecap="round" stroke-linejoin="round" />
</svg>