<svg width="25" height="25" fill="none" xmlns="http://www.w3.org/2000/svg"><path d="m18.828 1.617 4.347 4.531V23.38H6.937v.056H23.23V6.206l-4.402-4.589Z" fill="#909090"/><path d="M18.54 1.563H6.88V23.09h15.973v-17L18.54 1.563Z" fill="#F4F4F4"/><path d="M6.762 2.734H1.77v5.334h15.703V2.734H6.762Z" fill="#7A7B7C"/><path d="M17.556 7.978H1.871V2.641h15.685v5.337Z" fill="#DD2025"/><path d="M7.072 3.543H6.05v3.75h.803V6.028l.177.01c.173-.003.343-.033.506-.091.142-.049.273-.126.385-.227a.956.956 0 0 0 .262-.355c.078-.228.106-.47.082-.71a1.748 1.748 0 0 0-.09-.503.916.916 0 0 0-.536-.507 1.68 1.68 0 0 0-.569-.102m-.148 1.792h-.07V4.18h.152a.445.445 0 0 1 .358.141.719.719 0 0 1 .143.436c0 .193 0 .367-.173.49a.737.737 0 0 1-.41.09Zm2.868-1.802c-.086 0-.17.006-.23.009l-.186.004h-.61v3.75h.718c.274.008.547-.039.803-.137.206-.081.389-.213.531-.383.139-.172.238-.371.292-.585.061-.243.09-.492.089-.742a3.452 3.452 0 0 0-.068-.88 1.388 1.388 0 0 0-.73-.885 1.886 1.886 0 0 0-.43-.14 1.002 1.002 0 0 0-.178-.013M9.65 6.607h-.078V4.213h.01a.83.83 0 0 1 .469.084.938.938 0 0 1 .253.312c.066.128.103.268.11.411.008.172 0 .313 0 .43.004.133-.005.268-.025.4a1.37 1.37 0 0 1-.132.39.883.883 0 0 1-.284.282.526.526 0 0 1-.325.083m3.97-3.059h-1.9v3.75h.804V5.81h1.015v-.697h-1.015v-.869h1.094v-.697" fill="#464648"/><path d="M17.016 15.82s2.49-.451 2.49.4c0 .85-1.542.504-2.49-.4Zm-1.841.065a5.895 5.895 0 0 0-1.15.382l.312-.703c.312-.703.636-1.662.636-1.662.373.628.807 1.217 1.296 1.76-.369.055-.734.13-1.094.225v-.002Zm-.986-5.078c0-.741.24-.944.427-.944.186 0 .396.09.403.734a8.427 8.427 0 0 1-.403 1.902 3.457 3.457 0 0 1-.428-1.69v-.002Zm-3.632 8.216c-.764-.457 1.602-1.864 2.031-1.91-.002.001-1.231 2.388-2.031 1.91Zm9.677-2.703c-.008-.078-.078-.943-1.617-.906-.641-.01-1.283.035-1.916.135a9.797 9.797 0 0 1-1.572-2.074 9.19 9.19 0 0 0 .487-2.422c-.023-.937-.247-1.475-.966-1.467-.719.008-.824.637-.729 1.573a7.27 7.27 0 0 0 .52 1.826s-.333 1.034-.772 2.062a18.55 18.55 0 0 1-.739 1.567 7.52 7.52 0 0 0-2.129 1.094c-.643.6-.905 1.06-.566 1.52.292.396 1.315.486 2.229-.712.486-.618.93-1.268 1.328-1.946 0 0 1.394-.382 1.827-.487.434-.105.958-.188.958-.188s1.273 1.28 2.5 1.236c1.228-.046 1.168-.734 1.16-.809" fill="#DD2025"/><path d="M18.714 1.625v4.588h4.4l-4.4-4.588Z" fill="#909090"/><path d="M18.774 1.563V6.15h4.401l-4.4-4.588Z" fill="#F4F4F4"/><path d="M7.012 3.48H5.99v3.75h.806V5.968l.178.01c.172-.003.343-.034.506-.092.142-.049.273-.126.385-.227a.956.956 0 0 0 .26-.355c.077-.228.105-.47.081-.71a1.748 1.748 0 0 0-.089-.502.916.916 0 0 0-.537-.508 1.68 1.68 0 0 0-.57-.102m-.148 1.792h-.07V4.117h.152a.445.445 0 0 1 .359.14.719.719 0 0 1 .143.437c0 .192 0 .366-.173.489a.736.736 0 0 1-.41.089M9.731 3.47c-.086 0-.17.007-.23.009l-.184.005h-.61v3.75h.718c.274.007.547-.04.803-.137.206-.082.389-.214.531-.384.139-.171.239-.37.292-.585a2.91 2.91 0 0 0 .089-.741 3.447 3.447 0 0 0-.068-.88 1.39 1.39 0 0 0-.73-.886 1.886 1.886 0 0 0-.43-.139 1.002 1.002 0 0 0-.178-.013m-.142 3.076h-.078V4.15h.01a.83.83 0 0 1 .47.083.937.937 0 0 1 .252.313c.066.128.104.268.111.41.007.173 0 .313 0 .43.003.134-.005.268-.026.4a1.368 1.368 0 0 1-.132.391.883.883 0 0 1-.283.281.526.526 0 0 1-.325.083m3.966-3.058H11.66v3.75h.803V5.746h1.015V5.05h-1.015v-.868h1.094v-.697" fill="#fff"/></svg>