<svg width="30" height="32" viewBox="0 0 30 32" fill="none" xmlns="http://www.w3.org/2000/svg">
<path fill-rule="evenodd" clip-rule="evenodd" d="M2.5 16C2.5 8.63602 8.09625 2.66669 15 2.66669C21.9037 2.66669 27.5 8.63602 27.5 16C27.5 23.364 21.9037 29.3334 15 29.3334C8.09625 29.3334 2.5 23.364 2.5 16ZM15 5.33335C12.3478 5.33335 9.8043 6.45716 7.92893 8.45755C6.05357 10.4579 5 13.171 5 16C5 18.829 6.05357 21.5421 7.92893 23.5425C9.8043 25.5429 12.3478 26.6667 15 26.6667C17.6522 26.6667 20.1957 25.5429 22.0711 23.5425C23.9464 21.5421 25 18.829 25 16C25 13.171 23.9464 10.4579 22.0711 8.45755C20.1957 6.45716 17.6522 5.33335 15 5.33335Z" fill="#FCCF55"/>
<path fill-rule="evenodd" clip-rule="evenodd" d="M16.25 9.33333C16.25 8.97971 16.1183 8.64057 15.8839 8.39052C15.6495 8.14048 15.3315 8 15 8C14.6685 8 14.3505 8.14048 14.1161 8.39052C13.8817 8.64057 13.75 8.97971 13.75 9.33333V14.6667H8.75C8.41848 14.6667 8.10054 14.8071 7.86612 15.0572C7.6317 15.3072 7.5 15.6464 7.5 16C7.5 16.3536 7.6317 16.6928 7.86612 16.9428C8.10054 17.1929 8.41848 17.3333 8.75 17.3333H13.75V22.6667C13.75 23.0203 13.8817 23.3594 14.1161 23.6095C14.3505 23.8595 14.6685 24 15 24C15.3315 24 15.6495 23.8595 15.8839 23.6095C16.1183 23.3594 16.25 23.0203 16.25 22.6667V17.3333H21.25C21.5815 17.3333 21.8995 17.1929 22.1339 16.9428C22.3683 16.6928 22.5 16.3536 22.5 16C22.5 15.6464 22.3683 15.3072 22.1339 15.0572C21.8995 14.8071 21.5815 14.6667 21.25 14.6667H16.25V9.33333Z" fill="#FCCF55"/>
</svg>
