<svg xmlns="http://www.w3.org/2000/svg" width="675" height="549" fill="none"><path fill="#263238" d="M219 467.085c0 .19-8.671.915-20 .915s-21-.725-21-.915c0-.191 9.671 0 21 0s20-.178 20 0ZM196 496c1.895-2.889 3.738-5.412 6-8 2.082-2.746 4.582-5.568 7-8-1.893 2.895-3.736 5.409-6 8-2.071 2.751-4.572 5.584-7 8ZM190.004 495.998c-.151-.121 3.762-4.918 8.997-10.997 5.235-6.079 9.858-11.171 9.995-10.997.138.175-3.761 4.918-8.996 10.997s-9.845 11.118-9.996 10.997ZM119 467.085c0 .19-9.685.915-21 .915s-20-.725-20-.915c0-.191 8.671 0 20 0s21-.178 21 0Z"/><path fill="#F5F5F5" d="M288 437h-51v80h51v-80Z"/><path fill="#263238" d="M287.99 518a16.24 16.24 0 0 1 0-.987v-4.936c0-3.887.096-9.671 0-16.783 0-14.17.069-33.776 0-57.257h-50.864c-.096.067 1.326-1.312.997-.988V518h-.997H288.988h-51.862v-80.951c-.315.311.068-.081 0 0h51.862c-.069 23.563.041 44.021 0 58.245 0 7.031.027 12.923 0 16.783v4.936c0 .283-.998.987-.998.987Z"/><path fill="#FAFAFA" d="M55 471H4v46h51v-46Z"/><path fill="#263238" d="M54.964 518v-3c0-2.219.081-5.973 0-10 0-8.123-.932-19.123-1-33h1H4h1v46H4h50.964H4v-47h50.964c0 13.945.04 25.836 0 34v13Z"/><path fill="#F5F5F5" d="M56 447.619V517h182V405L56 447.619Zm62 61.452H80V456.54h38v52.531Zm100 0h-38V456.54h38v52.531Z"/><path fill="#263238" d="M216.991 510.972c-.006-.091-.006.091 0 0v-3.994c0-2.593.082-6.359 0-10.985 0-9.388.068-23.294 0-38.945l.999.999h-38.986c-.083 0 1.315-1.312.999-.999v53.924h-.999H216.991c.242-.02.757-.02.999 0-.219.022-.78.022-.999 0H179.004v-53.924h38.986c-.068 15.747.042 29.503 0 38.945 0 4.64.014 8.392 0 10.985v3.994c-.09.086-.889-.059-.999 0ZM117.958 510.974c-.006-.091-.006.09 0 0v-3.995c0-2.585.095-6.371 0-10.984 0-9.363-.942-22.34-.996-37.948h.996-38.833c-.095 0 1.322-1.312.996-.999v53.926h-.996H116.962c.235-.021.761-.021.996 0a7.197 7.197 0 0 1-.996 0H79.125V457.048c-.312.313.068-.081 0 0h38.833c0 15.703.04 29.53 0 38.947 0 4.626.081 8.399 0 10.984v2.996c-.014.3.013.999 0 .999Z"/><path fill="#263238" d="M55.055 447.623h1l2.998-.991 9.998-1.983 36.988-8.921L237 405v113H55.055c0-21.936-.028-39.512 0-51.544 0-5.989-.069-10.72 0-13.877V447.623v18.833c0 12.018-.123 29.662 0 51.544v-.991H237l-1 .991V405l1 .991-130.961 29.737-36.989 8.921-9.996 1.983-3 .991h-1Z"/><path fill="#FAFAFA" d="M163 463h-29v55h29v-55Z"/><path fill="#263238" d="M164 463.017v1c0-.313 0 .163 0 0v2.999c0 2.717-.097 6.255 0 10.996 0 9.688-.07 24.091 0 39.988h-30V463.017h29a7.255 7.255 0 0 1 1 0h-30 1V517h-1 29c.07-15.801-.042-29.368 0-38.988 0-4.782-.083-8.333 0-10.996v-3.999c.111-.013.889-.004 1 0ZM96 496c1.895-2.889 3.738-5.412 6-8 2.082-2.746 4.582-5.568 7-8-1.893 2.895-3.736 5.409-6 8-2.071 2.751-4.572 5.584-7 8ZM90.004 495.998c-.15-.121 3.765-4.918 8.997-10.997 5.231-6.079 9.858-11.171 9.995-10.997.138.175-3.765 4.918-8.996 10.997s-9.845 11.118-9.996 10.997ZM317.919 477c.182 0 0 8.95 0 20s.182 20 0 20-.919-8.963-.919-20 .724-20 .919-20Z"/><path fill="#FAFAFA" d="M325.897 486.872c11.773-4.769 17.381-18.151 12.527-29.89-4.854-11.738-18.334-17.387-30.107-12.618-11.773 4.77-17.382 18.152-12.527 29.89 4.854 11.739 18.334 17.388 30.107 12.618Z"/><path fill="#263238" d="M339.959 469.507c-.126-1.893-.567-7.192-.999-9.037-.535-2.147-.855-3.134-1.998-5.02-1.493-2.511-3.686-5.267-5.995-7.028-2.987-2.307-6.282-3.444-9.991-4.016-3.709-.573-7.464-.298-10.99 1.004-2.032.737-4.276 1.687-5.995 3.012-.898.673-2.2 1.214-2.997 2.008-.799.838-1.318 2.072-1.998 3.012-2.824 3.899-3.997 11.223-3.997 16.065 0 4.841 1.173 9.153 3.997 13.052 1.311 1.861 3.168 3.682 4.995 5.02 1.719 1.325 3.963 2.275 5.995 3.012 4.908 1.804 10.066 1.77 14.987 0 4.92-1.769 9.288-5.5 11.989-10.04 1.143-1.886 1.463-2.873 1.998-5.02.431-1.841.871-4.137.999-6.024.021.123.021-.123 0 0v1.004c.001.599.091 1.416 0 2.008-.088.812-.799 2.22-.999 3.012-.504 2.189-.869 4.09-1.998 6.024-1.647 2.86-4.332 5.115-6.994 7.028-2.662 1.914-5.79 3.392-8.992 4.016-4.048.778-8.112.414-11.989-1.004-2.1-.745-4.219-1.65-5.995-3.012-1.889-1.369-2.649-3.1-3.996-5.02-2.92-4.015-4.996-9.064-4.996-14.056 0-4.993 2.076-13.054 4.996-17.069 1.347-1.92 2.107-3.651 3.996-5.02 1.776-1.362 3.895-2.267 5.995-3.012 3.872-1.419 7.945-1.783 11.989-1.004 3.205.622 6.327 2.102 8.992 4.016 2.665 1.913 5.346 4.166 6.994 7.028 1.129 1.934 1.494 3.835 1.998 6.024.2.792.911 2.2.999 3.012.091.592.001 1.409 0 2.008v4.017c.029.126.011-.13 0 0ZM353.883 492c.222 4.157.073 8.83 0 13 .073 4.17.222 7.843 0 12-.223-4.157-.951-7.83-.878-12-.073-4.17.655-8.843.878-13Z"/><path fill="#FAFAFA" d="M354 499c8.008 0 14-5.992 14-14s-5.992-15-14-15-15 6.992-15 15 6.992 14 15 14Z"/><path fill="#263238" d="M367.842 484.002c-.117-1.103-.738-1.885-.994-2.967-.812-2.922-2.47-6.099-4.973-7.91-1.702-1.247-3.867-1.612-5.967-1.978-2.411-.421-4.66-.81-6.962 0-1.239.434-2.929 1.205-3.979 1.978-1.11.781-2.187 1.883-2.983 2.966-1.722 2.265-1.989 6.087-1.989 8.9 0 2.813.267 5.646 1.989 7.911.799 1.08 1.876 2.182 2.983 2.966 1.045.776 2.737 1.556 3.979 1.978 2.15.769 4.694.323 6.962 0 2.268-.322 4.135-.642 5.967-1.978 2.504-1.816 4.161-4.984 4.973-7.91.258-1.081.88-2.852.994-3.956.092 1.124.295 2.865 0 3.956-.625 2.559-2.017 5.103-3.978 6.922-1.96 1.819-5.29 3.46-7.956 3.955-2.513.475-4.556-.143-6.962-.989-1.303-.435-2.88-1.172-3.979-1.978-1.169-.816-2.14-1.833-2.983-2.966-1.818-2.376-2.984-5.943-2.984-8.9 0-2.957 1.166-5.535 2.984-7.911.839-1.132 1.811-2.158 2.983-2.966 1.102-.805 2.678-1.533 3.979-1.978 2.409-.834 4.449-1.451 6.962-.989 2.175.396 4.208 1.664 5.967 2.967 2.548 1.894 5.241 4.879 5.967 7.91.3 1.107.097 1.827 0 2.967Z"/><rect width="652" height="32" y="517" fill="#FFF2CC" rx="3"/><path fill="#263238" d="M662.299 0H560.701C553.686 0 548 5.665 548 12.653v213.694c0 6.988 5.686 12.653 12.701 12.653h101.598c7.015 0 12.701-5.665 12.701-12.653V12.653C675 5.665 669.314 0 662.299 0Z"/><path fill="#fff" stroke="#263238" stroke-miterlimit="10" stroke-width="1.337" d="M670 26H554v187h116V26Z"/><path fill="#EFC25A" d="M629.132 101.645c9.781-9.745 9.781-25.545 0-35.29-9.781-9.745-25.64-9.745-35.421 0-9.782 9.745-9.782 25.545 0 35.29 9.781 9.745 25.64 9.745 35.421 0ZM643.877 201h-65.748a1.229 1.229 0 0 1-.431-.074 1.144 1.144 0 0 1-.367-.216 1.007 1.007 0 0 1-.245-.324.903.903 0 0 1-.002-.768c.057-.122.14-.233.245-.326.105-.093.23-.167.367-.217.137-.05.285-.076.433-.075h65.748c.148 0 .295.026.432.076.136.051.26.125.364.218a.984.984 0 0 1 .243.326.894.894 0 0 1 .084.383.943.943 0 0 1-.329.705c-.21.187-.496.292-.794.292ZM646.392 123h-69.784c-1.44 0-2.608 1.129-2.608 2.522v7.956c0 1.393 1.168 2.522 2.608 2.522h69.784c1.44 0 2.608-1.129 2.608-2.522v-7.956c0-1.393-1.168-2.522-2.608-2.522ZM646.392 148h-69.784c-1.44 0-2.608 1.129-2.608 2.522v7.956c0 1.393 1.168 2.522 2.608 2.522h69.784c1.44 0 2.608-1.129 2.608-2.522v-7.956c0-1.393-1.168-2.522-2.608-2.522Z"/><path fill="#263238" d="m624.131 96.515-7.464-4.22V88.81a11.408 11.408 0 0 0 2.294-4.395c.257.09.527.136.8.137.925 0 1.514-2.818 1.613-4.83 1.077-2.24-.39-3.552-.39-3.552s.608-.597 1.011-2.992c.404-2.396-1.421-1.396-2.843-3.59-1.421-2.195-2.439-4.584-7.107-4.584a6.501 6.501 0 0 0-3.642.974 6.328 6.328 0 0 0-2.453 2.818c-1.162.004-2.32.137-3.451.396-1.428.396-1.831 4.986-.615 6.784.545.983.835 2.082.846 3.2-.324-.39-.661-.493-.846.39-.403 1.993 1.223 4.784 1.223 4.784l.84-.233a11.611 11.611 0 0 0 2.386 4.693v3.487l-7.464 4.22a5.695 5.695 0 0 0-2.099 2.06 5.555 5.555 0 0 0-.77 2.815v2.415A25.657 25.657 0 0 0 611.5 109c5.61 0 11.061-1.827 15.5-5.194v-2.415a5.537 5.537 0 0 0-.768-2.816 5.68 5.68 0 0 0-2.101-2.06ZM583.339 159a.655.655 0 0 1-.457-.195.611.611 0 0 1-.152-.213.613.613 0 0 1-.053-.257.68.68 0 0 1 .099-.343l1.192-1.934-2.324.073a.61.61 0 0 1-.476-.181.678.678 0 0 1 0-.893.596.596 0 0 1 .476-.188l2.291.087-1.178-1.928a.651.651 0 0 1-.047-.607.61.61 0 0 1 .153-.213.66.66 0 0 1 .456-.195.59.59 0 0 1 .537.35l1.132 2.076 1.119-2.063a.66.66 0 0 1 .576-.376.596.596 0 0 1 .443.202.69.69 0 0 1 .1.806l-1.199 1.948 2.324-.087a.6.6 0 0 1 .477.188.627.627 0 0 1 .172.443.68.68 0 0 1-.172.45.614.614 0 0 1-.477.181l-2.337-.073 1.165 1.914a.677.677 0 0 1-.563 1.028.584.584 0 0 1-.529-.363l-1.106-2.015-1.099 2.015a.625.625 0 0 1-.543.363ZM594.346 158.987a.66.66 0 0 1-.456-.195.633.633 0 0 1-.205-.469.676.676 0 0 1 .099-.342l1.19-1.931-2.314.074a.66.66 0 0 1-.483-.181.645.645 0 0 1 .124-.988.63.63 0 0 1 .359-.092l2.281.087-1.177-1.924a.682.682 0 0 1-.099-.349.617.617 0 0 1 .205-.469.661.661 0 0 1 .456-.195.59.59 0 0 1 .536.349l1.131 2.072 1.117-2.059a.654.654 0 0 1 .575-.375.58.58 0 0 1 .444.201.678.678 0 0 1 .191.476.679.679 0 0 1-.092.329l-1.197 1.944 2.327-.074a.594.594 0 0 1 .47.188.627.627 0 0 1 .172.443.68.68 0 0 1-.172.449.615.615 0 0 1-.47.181l-2.34-.074 1.163 1.911a.677.677 0 0 1-.094.83.66.66 0 0 1-.468.196.581.581 0 0 1-.529-.362l-1.104-2.012-1.098 2.012a.621.621 0 0 1-.542.349ZM604.342 159a.656.656 0 0 1-.462-.195.646.646 0 0 1-.106-.813l1.189-1.934-2.311.073a.629.629 0 0 1-.595-.372.65.65 0 0 1 .113-.702.611.611 0 0 1 .482-.188l2.278.087-1.175-1.928a.672.672 0 0 1-.099-.349.676.676 0 0 1 .204-.471.656.656 0 0 1 .462-.195.588.588 0 0 1 .528.35l1.129 2.076 1.116-2.063a.66.66 0 0 1 .574-.376.58.58 0 0 1 .443.202.667.667 0 0 1 .191.477.679.679 0 0 1-.092.329l-1.195 1.948 2.323-.087a.586.586 0 0 1 .472.162.613.613 0 0 1 .189.469.683.683 0 0 1-.165.45.607.607 0 0 1-.476.181l-2.33-.073 1.155 1.914c.065.107.1.23.099.356a.685.685 0 0 1-.204.47.618.618 0 0 1-.449.202.565.565 0 0 1-.315-.102.586.586 0 0 1-.207-.261l-1.109-2.015-1.096 2.015a.605.605 0 0 1-.561.363ZM615.336 159a.672.672 0 0 1-.567-1.008l1.187-1.935-2.308.074a.647.647 0 0 1-.481-.181.677.677 0 0 1 0-.893.649.649 0 0 1 .481-.189l2.281.088-1.167-1.928a.682.682 0 0 1-.098-.35.676.676 0 0 1 .204-.47.654.654 0 0 1 .461-.195.584.584 0 0 1 .317.096c.095.062.17.15.218.254l1.12 2.076 1.115-2.063a.658.658 0 0 1 .573-.376.576.576 0 0 1 .442.202.667.667 0 0 1 .191.476.683.683 0 0 1-.092.33l-1.194 1.948 2.321-.088a.602.602 0 0 1 .66.632.685.685 0 0 1-.165.45.609.609 0 0 1-.475.181l-2.327-.074 1.153 1.915a.676.676 0 0 1 .047.614.617.617 0 0 1-.152.212.622.622 0 0 1-.448.202.57.57 0 0 1-.521-.363l-1.108-2.015-1.094 2.015a.624.624 0 0 1-.234.269.603.603 0 0 1-.34.094ZM625.34 159a.656.656 0 0 1-.648-.584.682.682 0 0 1 .087-.424l1.182-1.934-2.312.073a.652.652 0 0 1-.482-.181.677.677 0 0 1 0-.893.659.659 0 0 1 .482-.188l2.285.087-1.175-1.928a.682.682 0 0 1-.099-.349.673.673 0 0 1 .66-.666.598.598 0 0 1 .535.35l1.123 2.076 1.116-2.063a.66.66 0 0 1 .574-.376.594.594 0 0 1 .449.202.672.672 0 0 1 .093.806l-1.195 1.948 2.324-.087a.586.586 0 0 1 .472.162.626.626 0 0 1 .189.469.678.678 0 0 1-.166.45.61.61 0 0 1-.475.181l-2.331-.073 1.155 1.914a.677.677 0 0 1 .047.614.617.617 0 0 1-.152.212.618.618 0 0 1-.449.202.565.565 0 0 1-.315-.102.586.586 0 0 1-.207-.261l-1.109-2.015-1.097 2.015a.607.607 0 0 1-.561.363ZM636.354 159a.65.65 0 0 1-.456-.195.614.614 0 0 1-.205-.47.68.68 0 0 1 .099-.343l1.183-1.934-2.314.073a.613.613 0 0 1-.467-.167.637.637 0 0 1-.148-.704.611.611 0 0 1 .133-.203.587.587 0 0 1 .476-.188l2.287.087-1.177-1.928a.682.682 0 0 1-.099-.349.682.682 0 0 1 .198-.471.66.66 0 0 1 .463-.195.59.59 0 0 1 .536.35l1.124 2.076 1.124-2.063a.658.658 0 0 1 .568-.376.594.594 0 0 1 .45.202.676.676 0 0 1 .185.477c0 .115-.03.228-.086.329l-1.197 1.948 2.321-.087a.596.596 0 0 1 .476.188.627.627 0 0 1 .172.443.68.68 0 0 1-.172.45.61.61 0 0 1-.476.181l-2.334-.073 1.157 1.914a.672.672 0 0 1-.099.826.654.654 0 0 1-.456.202.581.581 0 0 1-.523-.363l-1.11-2.015-1.098 2.015a.608.608 0 0 1-.535.363Z"/><path fill="#EFC25A" d="M670 26H554v7h116v-7Z" style="mix-blend-mode:multiply"/><path fill="#EFC25A" stroke="#263238" stroke-linecap="round" stroke-linejoin="round" stroke-width="1.337" d="M624.263 13h-25.526c-.461 0-.902-.158-1.228-.44A1.404 1.404 0 0 1 597 11.5c0-.398.183-.78.509-1.06.326-.282.767-.44 1.228-.44h25.526c.461 0 .902.158 1.228.44.326.28.509.662.509 1.06s-.183.78-.509 1.06c-.326.282-.767.44-1.228.44Z"/><path fill="#EFC25A" d="M619 223.007a7.001 7.001 0 1 0-13.466 2.675 7.006 7.006 0 0 0 6.473 4.318 7.001 7.001 0 0 0 6.993-6.993Z"/><path fill="#EFC25A" stroke="#263238" stroke-linecap="round" stroke-linejoin="round" stroke-width="1.337" d="M615 220h-7v7h7v-7Z"/><path fill="#EBB376" d="M511 183c7.566 1.194 14.908 24.836 18.096 26.836 3.188 1.999.449-22.14.449-22.14l6.059-.818s7.169 36.389-3.294 36.121c-7.937-.202-17.461-13.713-19.842-20.597L511 183Z"/><path fill="#000" d="M532.31 222.999c-4.828-.121-10.238-5.163-14.26-10.649a40.792 40.792 0 0 1-5.529-9.989l-.78-9.95L511 183c7.566 1.197 14.908 24.886 18.096 26.89 3.188 2.003.449-22.184.449-22.184l6.059-.82s7.169 36.381-3.294 36.113Z" opacity=".1"/><path fill="#000" d="M518.686 213a40.3 40.3 0 0 1-5.859-10.02L512 193s8.746 8.469 6.686 20Z" opacity=".2"/><path fill="#263238" d="M483.037 134.14s-13.671-.162-13.014 18.725 13.806 19.143 9.392 24.603a31.618 31.618 0 0 0 24.794 0s-2.429-.957-1.275-4.422c1.154-3.464 7.486-8.425 8.05-15.732.563-7.307-13.806-25.062-27.947-23.174Z"/><path fill="#263238" d="M497.031 170.453s17.572-3.242 14.639-19.869c-2.406-13.628-8.8-18-14.639-19.95a12.217 12.217 0 0 0-7.754-.005 12.162 12.162 0 0 0-6.182 4.659s-11.922-3.363-9.854 16.143c2.068 19.506 15.017 27.928 23.79 19.022Z"/><path fill="#EBB376" d="M528.659 448 521 444.055l2.783-11.514 2.57-10.541 9.647 3.172-3.883 12.087L528.659 448Z"/><path fill="#263238" d="M518.977 443.083c.454-.857 10.805 5.171 10.805 5.171s3.242 10.007 8.885 14.736c5.643 4.729.16 6.765-6.977 3.202l-17.662-8.842c-5.003-2.558.253-5.318 4.949-14.267Z"/><path fill="#EFC25A" d="M533.125 453.339a18.012 18.012 0 0 1-3.12-2.989.195.195 0 0 1 0-.09.376.376 0 0 1 0-.116.171.171 0 0 1 0-.078.195.195 0 0 1 .084-.116c.097-.09 2.315-2.061 4.16-1.945.271.017.535.088.774.208s.448.286.612.488c.175.15.295.348.342.566a.986.986 0 0 1-.078.645c-.333.528-1.387.695-2.552.734.912.253 1.729.74 2.358 1.404.105.139.178.296.214.463.036.166.034.338-.006.504-.153.695-.555.914-.86.979a2.763 2.763 0 0 1-1.038-.142 2.612 2.612 0 0 1-.89-.515Zm-2.01-2.693c1.289 1.404 3.023 2.925 3.758 2.757.069 0 .263 0 .36-.502a.59.59 0 0 0-.125-.516c-.568-.798-2.62-1.404-3.993-1.739Zm3.688-1.817a1.315 1.315 0 0 0-.679-.219 5.656 5.656 0 0 0-3.092 1.289c1.955.18 3.979.103 4.257-.348.083-.142-.097-.387-.222-.528a1.207 1.207 0 0 0-.264-.194Z"/><path fill="#000" d="M531.129 439 523 434.082 525.537 423l9.463 3.242L531.129 439Z" opacity=".2"/><path fill="#EBB376" d="M515 458h-9.055l-2.589-11.191L501 436.554 511.589 435l1.808 12.178L515 458Z"/><path fill="#263238" d="M503.347 457.515c0-1.012 12.182-.221 12.182-.221s7.459 7.763 14.701 9.509c7.242 1.747 3.194 6.197-4.9 6.197h-20.075c-5.78 0-2.152-5.018-1.908-15.485Z"/><path fill="#EFC25A" d="M521.416 460.99a16.254 16.254 0 0 1-5.281-1.597l-.114-.085v-.071a.438.438 0 0 1 0-.268c0-.113 1.125-3.068 2.847-3.788a1.976 1.976 0 0 1 1.651 0c.584.282.854.636.84 1.074 0 .664-.954 1.328-1.993 1.88a5.072 5.072 0 0 1 2.847.311 1.408 1.408 0 0 1 .683.848 1.223 1.223 0 0 1-.313 1.413 1.776 1.776 0 0 1-1.167.283Zm-4.114-1.809c1.879.777 4.27 1.484 4.811.989 0 0 .214-.17.086-.664a.67.67 0 0 0-.356-.438c-.925-.538-3.103-.212-4.541.113Zm2.278-3.492a1.354 1.354 0 0 0-.513.114 5.666 5.666 0 0 0-2.192 2.713c1.893-.706 3.715-1.696 3.744-2.261 0-.184-.271-.339-.442-.424a1.318 1.318 0 0 0-.597-.142Z"/><path fill="#000" d="m513 448-9.709-.415L501 436.687 511.238 435 513 448Z" opacity=".2"/><path fill="#263238" d="m471.661 249.538 21.722-3.5L513.071 242l5.353 32.306s27.718 40.382 34.437 68.165c6.719 27.783-18.483 92.233-18.483 92.233l-11.577-5.155s8.03-61.987 7.843-69.431c-.121-4.846-15.927-27.191-26.982-42.253-.321 3.782 3.266 41.486 3.266 41.486L514.73 442h-14.588c-50.163-156.67-28.481-192.462-28.481-192.462Z"/><path fill="#fff" d="M500.152 442h14.536l-7.804-82.649s-3.56-37.959-3.266-41.486a976.525 976.525 0 0 1 6.947 9.57c9.731 13.609 19.943 28.78 20.077 32.67.188 7.457-7.843 69.444-7.843 69.444l11.578 5.155s25.203-64.477 18.484-92.246c-6.719-27.77-34.439-68.152-34.439-68.152L513.068 242l-19.689 4.038-21.724 3.5S449.985 285.384 500.152 442Z" opacity=".6"/><path fill="#EFC25A" d="M521.769 424 539 430.014 535.154 436 521 430.875l.769-6.875ZM498 439.581 516 437l-.896 7.04L500.24 446l-2.24-6.419Z"/><path fill="#000" d="M503.709 317.52c2.29 2.947 4.776 6.16 7.291 9.48-4.018-19.76-8.752-39-8.752-39-.6 9.861-.11 19.755 1.461 29.52Z" opacity=".2"/><path fill="#EFC25A" d="M512.406 243.244 472.688 246s-.536-21.323-3.702-32.414a198.498 198.498 0 0 0-1.422-4.719 240.141 240.141 0 0 0-4.05-11.724 8.267 8.267 0 0 1 1.945-8.752 8.041 8.041 0 0 1 4.024-2.191c2.924-.646 5.808-1.251 7.377-1.493A143.43 143.43 0 0 1 494.834 183c5.098 0 10.731.296 13.95.524l2.791.215s1.26.283 2.065 7.691c.725 6.964.376 26.485-1.234 51.814Z"/><path fill="#EBB376" d="M494.209 192c-10.31-1.834-13.209-6.344-13.209-6.344 6.901-5.788 1.988-16.656 1.988-16.656l12.422 2.921a34.673 34.673 0 0 0-.759 5.149c-.483 7.458 2.94 7.703 2.94 7.703 1.891 4.089-3.382 7.227-3.382 7.227Z"/><path fill="#000" d="M495 171.896a35.282 35.282 0 0 0-.737 5.104c-5.772-1.657-11.263-8-11.263-8l12 2.896Z" opacity=".2"/><path fill="#EBB376" d="M493.983 137.055c10.366.958 13.206 6.933 13.007 17.926-.25 13.732-4.067 23.161-16.783 19.046-17.273-5.57-13.457-38.55 3.776-36.972Z"/><path fill="#D58745" d="M500.209 154a23.823 23.823 0 0 0 2.791 4.925 3.04 3.04 0 0 1-1.363.923 2.998 2.998 0 0 1-1.637.07l.209-5.918Z"/><path fill="#263238" d="M493.996 152.57c0 .817-.549 1.455-1.098 1.429-.549-.025-.945-.74-.894-1.569.051-.83.549-1.455 1.098-1.429.549.025.945.74.894 1.569Z"/><path fill="#263238" d="m493 150.68 2-.68s-1.048 1.685-2 .68ZM504.995 152.577c-.063.819-.548 1.46-1.096 1.421-.548-.038-.956-.73-.892-1.562.063-.832.535-1.473 1.096-1.434.561.038.943.742.892 1.575Z"/><path fill="#263238" d="m504 150.668 2-.668s-1.117 1.699-2 .668ZM489.499 146a.624.624 0 0 1-.354-.116.408.408 0 0 1-.145-.303c0-.113.052-.221.145-.303a6.874 6.874 0 0 1 2.561-1.112 7.63 7.63 0 0 1 2.893-.053.565.565 0 0 1 .183.067.473.473 0 0 1 .138.12.368.368 0 0 1 .067.32.384.384 0 0 1-.081.151.499.499 0 0 1-.145.114.61.61 0 0 1-.388.055 6.418 6.418 0 0 0-2.373.03 5.802 5.802 0 0 0-2.12.879.53.53 0 0 1-.171.11.595.595 0 0 1-.21.041ZM506.521 147a.573.573 0 0 1-.303-.094 4.443 4.443 0 0 0-1.679-.882 4.804 4.804 0 0 0-1.943-.13.542.542 0 0 1-.359-.049.449.449 0 0 1-.221-.257.384.384 0 0 1 .046-.319.468.468 0 0 1 .284-.199 5.886 5.886 0 0 1 2.393.121 5.46 5.46 0 0 1 2.085 1.056.426.426 0 0 1 .174.288.406.406 0 0 1-.108.312.459.459 0 0 1-.164.115.526.526 0 0 1-.205.038Z"/><path fill="#263238" d="M480.564 153.934s5.655-8.145 5.509-14.829c0 0 21.476-6.644 20.611 14.497 0 0 3.699-18.457-14.224-20.49-17.923-2.033-20.225 24.237-11.643 32.888 0-.013-3.765-6.99-.253-12.066Z"/><path fill="#EBB376" d="M483 155.652a4.384 4.384 0 0 0-.357-1.768 4.592 4.592 0 0 0-1.048-1.505 4.921 4.921 0 0 0-1.58-1.013 5.167 5.167 0 0 0-1.871-.366c-3.492.067-5.778 6.603 2.669 8.942 1.207.335 2.016-.748 2.187-4.29Z"/><path fill="#263238" d="M499.26 164.957a6.206 6.206 0 0 1-3.835-1.093 6.31 6.31 0 0 1-2.402-3.21.5.5 0 0 1 .034-.384.478.478 0 0 1 .122-.153.515.515 0 0 1 .37-.115.512.512 0 0 1 .44.365 5.331 5.331 0 0 0 2.115 2.764 5.252 5.252 0 0 0 3.355.851.51.51 0 0 1 .071 1.018l-.27-.043ZM506.533 151a.458.458 0 0 1-.276-.096.488.488 0 0 1-.17-.247c-4.019-13.737-19.412-11.594-19.557-11.567a.443.443 0 0 1-.344-.092.492.492 0 0 1-.171-.509.484.484 0 0 1 .213-.298.47.47 0 0 1 .171-.063c.157 0 16.325-2.266 20.581 12.24a.507.507 0 0 1-.036.372.475.475 0 0 1-.28.233l-.131.027Z"/><path fill="#EBB376" d="M534.247 173.002s5.517-.092 5.704.86c.187.953-.173 8.956-.908 10.081a16.5 16.5 0 0 1-2.739 2.738l.534 14.181-3.286 1.138-2.979-12.977s-3.38-3.268-2.392-7.409c.989-4.14 6.066-8.612 6.066-8.612Z"/><path fill="#000" d="M534.247 173.002s5.517-.092 5.704.86c.187.953-.173 8.956-.908 10.081a16.5 16.5 0 0 1-2.739 2.738l.534 14.181-3.286 1.138-2.979-12.977s-3.38-3.268-2.392-7.409c.989-4.14 6.066-8.612 6.066-8.612Z" opacity=".1"/><path fill="#263238" d="M525.001 181.106a.867.867 0 0 0 .571.847c.114.04.236.055.356.043l9.404-.74c.262-.025.507-.146.689-.339.182-.194.291-.447.306-.715l.671-19.175a.976.976 0 0 0-.566-.944.947.947 0 0 0-.374-.083l-9.405.74c-.273.055-.52.203-.7.419a1.27 1.27 0 0 0-.294.772l-.658 19.175Z"/><path fill="#fff" d="m526.626 161.608-.617 18.569a.706.706 0 0 0 .484.786.745.745 0 0 0 .335.03l7.985-.605c.536 0 1.503-.408 1.516-.934l.671-18.622c0-.526-.926-.868-1.463-.829l-8.052.605a.975.975 0 0 0-.633.331.938.938 0 0 0-.226.669Z" opacity=".5"/><path fill="#EBB376" d="m515 195 3.64-8.507s1.186-11.4 1.759-12.629c.573-1.229 9.844-.764 10.907-.833 1.063-.068.818 11.305-.15 12.507-.968 1.201-4.758 2.157-4.758 2.157L520.576 199 515 195ZM505.781 190.19c-.973 3.894-4.716 6.89-12.458 6.808a20.782 20.782 0 0 1-12.162-4.194 30.353 30.353 0 0 1-7.161-7.516c1.122-.205 2.257-.382 3.392-.559A143.843 143.843 0 0 1 495.498 183c3.202 0 6.594.095 9.459.245a11.268 11.268 0 0 1 .824 6.945Z"/><path fill="#263238" d="M472.668 243.061 471 250l43-2.151-1.238-6.849-40.094 2.061Z"/><path fill="#fff" d="M497.118 249a1.653 1.653 0 0 1-1.085-.395 1.52 1.52 0 0 1-.526-.989l-.5-4.477a1.58 1.58 0 0 1 .379-1.178 1.64 1.64 0 0 1 1.136-.543l6.306-.414a1.67 1.67 0 0 1 1.168.367c.324.263.526.638.564 1.043l.433 4.412a1.56 1.56 0 0 1-.365 1.152 1.606 1.606 0 0 1-1.123.543l-6.252.479h-.135Zm-.758-6.004.487 4.477c.01.068.046.129.101.172a.297.297 0 0 0 .197.061l6.251-.466a.292.292 0 0 0 .19-.103.27.27 0 0 0 .068-.194l-.447-4.412a.238.238 0 0 0-.089-.175.263.263 0 0 0-.195-.058l-6.306.414a.256.256 0 0 0-.113.021.255.255 0 0 0-.09.069.235.235 0 0 0 0 .194h-.054Z"/><path fill="#fff" d="M503.265 245h-2.53a.945.945 0 0 1-.52-.146c-.138-.094-.215-.221-.215-.354.004-.132.082-.258.22-.351a.954.954 0 0 1 .515-.149h2.53a.954.954 0 0 1 .515.149c.138.093.216.219.22.351 0 .133-.077.26-.215.354a.945.945 0 0 1-.52.146Z"/><path fill="#000" d="M478.677 211.609c-3.84 1.336-8.142-1.002-11.059-3.26a240.605 240.605 0 0 0-4.098-11.651 8.077 8.077 0 0 1-.321-4.635 8.172 8.172 0 0 1 2.288-4.063c7.382 6.854 18.32 21.886 13.19 23.609Z" opacity=".2"/><path fill="#EBB376" d="M465.66 187.599a7.095 7.095 0 0 1 2.584-1.341 7.032 7.032 0 0 1 2.897-.185c.968.14 1.897.481 2.73 1.001a7.153 7.153 0 0 1 2.109 2.021c5.892 8.555 15.783 22.781 16.978 23.474 1.704 1.007 14.561-11.002 26.023-26.235l7.019 2.72s-18.132 37.782-31.002 37.945c-9.65.123-24.158-19.707-30.747-29.676a7.31 7.31 0 0 1-1.175-5.141 7.256 7.256 0 0 1 2.584-4.583Z"/><path fill="#000" d="M478.764 256s-3.389 8.739-11.764 11.863V271s12.278-4.956 14-13.181L478.764 256ZM469.313 303.097 480.364 301 483 323.444 472.418 325l-1.526-14.611 9.551-1.371-.548-5.539-.157 4.919-10.738 1.74.313-7.041Z" opacity=".2"/></svg>