<svg xmlns="http://www.w3.org/2000/svg" width="30" height="30" fill="none"><path fill="#1C1C1C" d="M24.875 15.825a1.25 1.25 0 0 1 0-1.65l1.6-1.8a1.25 1.25 0 0 0 .15-1.463l-2.5-4.325a1.25 1.25 0 0 0-1.337-.6l-2.35.475A1.25 1.25 0 0 1 19 5.637l-.762-2.287a1.25 1.25 0 0 0-1.188-.85h-5a1.25 1.25 0 0 0-1.25.85l-.7 2.287a1.25 1.25 0 0 1-1.438.825L6.25 5.987a1.25 1.25 0 0 0-1.25.6l-2.5 4.325a1.25 1.25 0 0 0 .125 1.463l1.587 1.8a1.25 1.25 0 0 1 0 1.65l-1.587 1.8a1.25 1.25 0 0 0-.125 1.462L5 23.413a1.25 1.25 0 0 0 1.337.6l2.35-.476a1.25 1.25 0 0 1 1.438.826l.762 2.287a1.25 1.25 0 0 0 1.25.85h5a1.25 1.25 0 0 0 1.188-.85l.762-2.287a1.25 1.25 0 0 1 1.438-.825l2.35.474a1.25 1.25 0 0 0 1.337-.6l2.5-4.325a1.25 1.25 0 0 0-.15-1.462l-1.687-1.8ZM23.012 17.5l1 1.125-1.6 2.775-1.474-.3a3.75 3.75 0 0 0-4.313 2.5L16.15 25h-3.2l-.45-1.425a3.75 3.75 0 0 0-4.313-2.5l-1.475.3-1.625-2.762 1-1.125a3.75 3.75 0 0 0 0-5l-1-1.125 1.6-2.75 1.475.3a3.75 3.75 0 0 0 4.313-2.5L12.95 5h3.2l.475 1.425a3.75 3.75 0 0 0 4.313 2.5l1.475-.3 1.6 2.775-1 1.125a3.75 3.75 0 0 0 0 4.975ZM14.55 10a5 5 0 1 0 0 10 5 5 0 0 0 0-10Zm0 7.5a2.5 2.5 0 1 1 0-5 2.5 2.5 0 0 1 0 5Z"/></svg>