<svg width="50" height="56" viewBox="0 0 50 56" fill="none" xmlns="http://www.w3.org/2000/svg">
  <path fill-rule="evenodd" clip-rule="evenodd"
    d="M17.5725 6.39742C19.705 -1.07477 30.2945 -1.07477 32.427 6.39742C33.3573 9.65723 36.7063 11.5908 39.9946 10.7666C47.5319 8.87724 52.8267 18.0481 47.4218 23.6309C45.0639 26.0665 45.0639 29.9336 47.4218 32.3692C52.8267 37.9521 47.5319 47.1229 39.9946 45.2336C36.7063 44.4093 33.3573 46.3429 32.427 49.6027C30.2945 57.0749 19.705 57.0749 17.5725 49.6027C16.6422 46.3429 13.2931 44.4093 10.0049 45.2336C2.46758 47.1229 -2.82719 37.9521 2.57768 32.3692C4.9356 29.9336 4.9356 26.0665 2.57768 23.6309C-2.82719 18.0481 2.46758 8.87724 10.0049 10.7666C13.2931 11.5908 16.6422 9.65723 17.5725 6.39742ZM31.04 6.79323C29.3058 0.716365 20.6937 0.716367 18.9594 6.79323C17.8155 10.8015 13.6975 13.1791 9.65424 12.1656C3.52439 10.6291 -0.781658 18.0874 3.61393 22.6277C6.51326 25.6225 6.51326 30.3776 3.61393 33.3724C-0.781659 37.9128 3.52439 45.3711 9.65424 43.8346C13.6975 42.8211 17.8155 45.1986 18.9594 49.2069C20.6937 55.2838 29.3058 55.2838 31.04 49.2069C32.184 45.1986 36.302 42.8211 40.3453 43.8346C46.4751 45.3711 50.7811 37.9128 46.3855 33.3724C43.4862 30.3776 43.4862 25.6225 46.3855 22.6277C50.7811 18.0874 46.4751 10.6291 40.3453 12.1656C36.302 13.1791 32.184 10.8015 31.04 6.79323ZM16.7786 28.0001C16.7786 23.4596 20.4593 19.7789 24.9997 19.7789C29.5402 19.7789 33.2209 23.4596 33.2209 28.0001C33.2209 32.5405 29.5402 36.2212 24.9997 36.2212C20.4593 36.2212 16.7786 32.5405 16.7786 28.0001ZM24.9997 21.2212C21.2559 21.2212 18.2209 24.2562 18.2209 28.0001C18.2209 31.7439 21.2559 34.7789 24.9997 34.7789C28.7436 34.7789 31.7786 31.7439 31.7786 28.0001C31.7786 24.2562 28.7436 21.2212 24.9997 21.2212Z"
    fill="#B5B3B2" />
</svg>