<svg width="696" height="588" fill="none" xmlns="http://www.w3.org/2000/svg"><path d="M569.97 126.149 558 127l.074.997 11.97-.851-.074-.997zM579.985 125.574 574 126l.074.997 5.985-.425-.074-.998z" fill="#EFC25A"/><path d="m628.977.027-191.952 13.99c-3.998.306-7.374 2.026-9.998 4.998-2.623 2.971-4.266 7.072-3.999 10.993l6.999 87.944c.309 3.923 1.961 7.42 4.998 9.993 3.038 2.573 6.991 4.265 10.998 3.998l10.997-1c.79-.055 1.4.492 1.999 1 .6.507.942 1.224 1 1.998l1 15.99c.02.319-.198.747 0 1 .198.252.691.898 1 .999.308.101.686.086.999 0 .314-.086.789-.756 1-.999l17.996-19.988c.765-.864 1.834-1.913 2.999-1.998l152.962-9.994c4-.303 7.372-3.024 9.998-5.996 2.625-2.972 4.266-6.072 3.999-9.994l-6.999-88.943c-.309-3.92-1.965-7.421-4.998-9.994-3.033-2.573-6.995-4.259-10.998-3.997z" fill="#EFC25A"/><path d="M465 54h10l1 11 11-1-1-11 11-1 2 33h-10l-1-13-11 1 1 13-11 1-2-33zM532 73.002l-17.979.992c.141 1.161.206 2.099.999 2.976.454.467 1.378.771 1.998.992.619.221 1.341 1.063 1.997.992.901-.063 1.243-.507 1.998-.992.59-.436 1.605-1.371 1.998-1.984H532c-.989 2.187-2.958 4.622-4.994 5.953-1.869 1.154-4.339 1.747-7.991 1.984-2.553.29-5.556-.187-7.99-.993-1.952-.799-3.796-2.266-4.995-3.968-1.374-1.936-1.882-3.6-1.997-5.952-.191-1.634.494-3.391.999-4.96.504-1.57.883-3.726 1.997-4.96 2.225-2.422 5.795-3.67 9.989-3.969 2.776-.322 5.365.053 7.99.992 2.01.838 3.851 2.152 4.994 3.968 1.309 2.257 1.901 5.346 1.998 7.937v.992zm-9.988-3.968c-.13-1.357-.028-2.988-.999-3.969-.489-.367-1.399.147-1.998 0-.598-.146-1.389-.097-1.997 0-.609.098-1.48-.326-1.998 0-.519.327-.657.492-.999.993-.571.981-1.024 2.84-.999 3.968l8.99-.992zM535 49l10-1 2 32-10 1-2-32zM551 48l10-1 2 32-10 1-2-32zM567.03 67.966c-.176-1.636.468-3.398.998-4.961.531-1.564.853-3.742 1.998-4.962 2.32-2.489 5.737-3.67 9.987-3.97 4.842-.334 8.297.44 10.985 2.978 2.233 2.27 3.893 5.802 3.995 8.93.102 3.13-.915 6.53-2.996 8.932-2.298 2.467-5.622 3.648-9.987 3.969-3.391.392-7.133-.175-9.987-1.985-1.518-1.016-2.108-2.407-2.996-3.97-.888-1.561-1.926-3.18-1.997-4.96zm8.988-.992c-.018 1.65.909 2.696 1.997 3.97.439.433 1.41.776 1.998.992.587.215.371 1.034.998.992.627-.042 1.447-.7 1.998-.992.551-.292 1.624-.505 1.997-.993.876-1.455 1.272-3.3.999-4.961.01-1.618-.929-2.723-1.998-3.97-.417-.441-1.42-.775-1.997-.992-.577-.218-.381-1.044-.999-.992-.644.029-1.433.69-1.997.992-.564.3-1.63.481-1.997.992-.874 1.407-1.278 3.345-.999 4.962zM598 45l10-1v22l-6 1-3-15-1-7zm2 24 9-1 1 8-9 1-1-8z" fill="#fff"/><path d="M430.02 150.123c-.053 1.742-.235 3.29 0 5.017-10.774 3.6-22.654 4.868-33.861 3.01.538-2.036.886-3.918.996-6.02-.375 2.116-.927 4.153-1.992 6.02-2.116-.405-2.988-1.004-2.988-1.004s1.909-11.548-1.991-20.067c-3.901-8.519-1.953-12.702.996-14.046 5.469-16.824 25.909-14.856 32.865-8.027 8.823 8.662 9.385 33.55 10.955 39.13-1.296.559-2.711.551-3.984 1.004-.637-1.56-.877-3.337-.996-5.017z" fill="#263238"/><path d="m439 176 1 2.998c.392 1.16 1.596 2.894 2 3.997.796 2.321 1.109 4.766 2 6.994.891 2.229 2.073 3.721 3 5.996l1 3.997v.999h1c-.147-.126-.817.066-1 0-.261-.093-.166 0 0 0 .286-.001.727.083 1 0 .929-.288 1.16-1.515 2-1.999 2.026-1.153 4.166-1.57 6-2.997 1.925-1.463 4.147-3.383 6-4.997 1.853-1.613 3.206-3.348 5-4.996l4 2.998c-1.521 2.136-3.372 4.011-5 5.995-1.628 1.985-3.123 4.15-5 5.996-1.932 1.926-3.75 3.432-6 4.996-1.287.881-2.547 1.414-4 1.998-.922.362-2.014.883-3 1-1.339.163-2.754-.494-4-1-1.359-.565-3.189-.792-4-1.998-.178-.267.131-.756 0-.999v-.999l-1-1c-.558-1.16-1.513-1.906-2-2.997-1.081-2.322-2.014-4.674-3-6.995-.986-2.321-2.085-4.604-3-6.995-.428-1.16-.596-2.778-1-3.997-.404-1.218-.608-2.569-1-3.997l9-1.998z" fill="#FFC3BD"/><path d="M435.85 164.705c4.166 1.061 7.15 17.2 7.15 17.2L431.764 190s-10.35-16.678-7.15-21.248c3.333-4.751 5.162-5.591 11.236-4.047z" fill="#EFC25A"/><path d="M435.85 164.705c4.166 1.061 7.15 17.2 7.15 17.2L431.764 190s-10.35-16.678-7.15-21.248c3.333-4.751 5.162-5.591 11.236-4.047z" fill="#EFC25A"/><path d="M435.85 164.705c4.166 1.061 7.15 17.2 7.15 17.2L431.764 190s-10.35-16.678-7.15-21.248c3.333-4.751 5.162-5.591 11.236-4.047z" fill="#fff" opacity=".4"/><path d="m437 169 3 16-7 4 4-20z" fill="#000" opacity=".3"/><path d="m468 185.875 4-8.875 4 8.875s-3.215 3.976-7 2.958l-1-2.958zM476 176l6 2-5 8-5-9 4-1zM414 445h9l1-23h-9l-1 23zM346 416l10 4 12-20-10-4-12 20z" fill="#FFC3BD"/><path d="m356.795 419.1-9.849-6.039c-.159-.106.187-.031 0 0-.187.032-.866-.152-.985 0l-5.909 7.046c-.14.182.054.78 0 1.006-.055.226-.041-.229 0 0 .04.229-.129.816 0 1.007.128.191.791.888.984 1.006 3.283 2.018 4.767 2.423 8.865 5.033 2.526 1.619 6.368 3.815 9.849 6.038 3.48 2.224 6.216-.744 4.924-2.013-5.646-5.594-5.835-8.766-6.894-12.077-.176-.602-.471-.674-.985-1.007zM422.052 444.053h-10.997c-.195-.002.15-.119 0 0-.149.119-.97.811-.999.992l-1 7.932c-.031.216-.068.783 0 .992.068.209-.155-.163 0 0 .156.162.786.905 1 .991.214.087.766.006.999 0 3.971-.056 5.985 0 10.997 0h12.995c4.249 0 4.766-3.603 2.999-3.966-7.929-1.598-11.32-3.852-13.995-5.949-.474-.396-1.365-.985-1.999-.992z" fill="#263238"/><path d="M424 422v11h-10v-11h10zM357 396l10 4-6 10-10-4 6-10z" fill="#000" opacity=".2"/><path d="M433.966 165.302s4.413 1.69-4.996 57.698h-39.975c.671-15.774.756-25.317-6.995-57.698 5.592-1.122 11.289-2.662 16.989-2.985a127.648 127.648 0 0 1 17.988 0c7.81.685 16.989 2.985 16.989 2.985z" fill="#EFC25A"/><path d="M433.966 165.302s4.413 1.69-4.996 57.698h-39.975c.671-15.774.756-25.317-6.995-57.698 5.592-1.122 11.289-2.662 16.989-2.985a127.648 127.648 0 0 1 17.988 0c7.81.685 16.989 2.985 16.989 2.985z" fill="#fff" opacity=".4"/><path d="M399.989 162.281a158.867 158.867 0 0 1 18.898 0c1.001.084 1.972.861 2.984.965.422.547.897 1.279.995 1.93.098.651.245 1.308 0 1.929-1.314 2.798-6.524 2.895-9.947 2.895-12.667 0-14.835-6.483-14.919-6.754v-.965h1.989z" fill="#fff"/><path d="M401.996 142c1.184 5.811 2.124 16.153-1.996 20 0 0 2.056 6 12.973 6 12.006 0 4.989-6 4.989-6-6.559-1.534-6.126-6.525-4.989-11l-10.977-9z" fill="#FFC3BD"/><path d="M403 138c-1.474 4.437.966 14.936 4 19-5.981-3.127-8-13-8-13l4-6z" fill="#263238"/><path d="m406.141 146 6.859 6c-.285 1.073-.895 1.891-.98 3-2.447-.371-5.6-3.355-5.879-6-.144-1.068-.228-1.947 0-3z" fill="#000" opacity=".2"/><path d="M396.421 132.181c2.244 9.31 3.24 13.04 8.861 17.043 8.455 6.01 20.085 1.774 20.675-8.02.532-8.813-3.894-22.94-13.783-25.063-2.179-.479-3.77.364-5.908 1.003-2.137.639-4.352 1.411-5.907 3.007-1.555 1.596-3.359 3.866-3.938 6.015-.579 2.15-.543 3.857 0 6.015z" fill="#FFC3BD"/><path d="M429.963 225s7.695 75.168 6.992 105c-.68 31.025-11.986 102-11.986 102h-13.983s2.192-68.524.999-99C410.685 299.775 400 225 400 225h29.963z" fill="#EFC25A"/><path d="M429.963 225s7.695 75.168 6.992 105c-.68 31.025-11.986 102-11.986 102h-13.983s2.192-68.524.999-99C410.685 299.775 400 225 400 225h29.963z" fill="#000" opacity=".4"/><path d="M410 433h16l1-5-18-1 1 6z" fill="#EFC25A"/><path d="M413.056 243.755c10.435 19.667 1.679 54.895-2.012 68.245-1.89-20.043-4.554-44.209-7.044-62.224 1.576-10.127 4.239-15.093 9.056-6.021z" fill="#000" opacity=".2"/><path d="M419 225s-9.083 77.913-16 103c-8.202 29.831-40 81-40 81l-12-5s19.714-58.284 26-74c13.393-33.535 1.298-83.114 12-105h30z" fill="#EFC25A"/><path d="M419 225s-9.083 77.913-16 103c-8.202 29.831-40 81-40 81l-12-5s19.714-58.284 26-74c13.393-33.535 1.298-83.114 12-105h30z" fill="#000" opacity=".4"/><path d="m349 404 15 6 4-4-18-8-1 6z" fill="#EFC25A"/><path d="M413.035 130.999c.137.539.468 1.061.973.995.504-.065 1.11-.456.972-.995-.137-.538-.468-1.052-.972-.995-.505.058-1.168.448-.973.995zM422.021 129.999c.128.539.464 1.061.979.995.515-.065 1.12-.456.979-.995-.14-.538-.464-1.052-.979-.995-.515.058-1.12.448-.979.995z" fill="#263238"/><path d="m422 128.882 2-.882s-.795 1.409-2 .882z" fill="#263238"/><path d="M420 133c.826 1.752 1.835 3.53 3 4.924-.285.373-.62.801-1 .985-.38.184-.595.038-1 0L420 133z" fill="#ED847E"/><path d="M414.998 141.97c.5-.001 1.498.068 1.991 0 .037-.001-.034.013 0 0 .033-.013-.024.023 0 0 .023-.023-.01.029 0 0 .009-.028.006.029 0 0-.007-.029.021.024 0 0-.022-.024.032-.962 0-.977-.033-.015.037.004 0 0-.038-.003.035-.009 0 0-1.087.169-2.915.234-3.981 0-1.067-.233-2.172-.391-2.986-.976-.049-.038.069 0 0 0s.05-.038 0 0c-.025.018.014-.025 0 0-.014.024 0-.027 0 0s-.014-.025 0 0c.014.024-.025-.019 0 0 1.378 1.016 3.078 1.968 4.976 1.953zM398.216 125.815c.251 2.509 1.462 4.642 1.976 7.108 0 0 5.964-7.17 6.918-11.17-.228 1.575-1.328 2.616-1.976 4.062 0 0 8.135-.854 8.894-6.092-.013 2.345-.497 3.802-.989 6.092 0 0 7.596-2.082 6.918-7.108-.678-5.025-12.56-6.776-17.788-5.077-5.229 1.699-10.434 6.642-8.894 14.216 1.539 7.574 4.941 10.154 4.941 10.154s-2.712-7.336 0-12.185z" fill="#263238"/><path d="M396.117 139.945c.731 1.679 2.157 3.171 3.914 3.866 2.369.907 4.328-1.622 3.913-3.866-.367-2.029-2.44-4.878-4.892-4.832-.536.022-.517-.265-.978 0-.461.264-1.683 1.49-1.957 1.932-.274.442.021.454 0 .967-.021.513-.236 1.472 0 1.933z" fill="#FFC3BD"/><path d="M401 122c-1.143 4.559 1.006 15.045 4 19-5.714-2.884-8-12-8-12l4-7zM408.019 128.975c.074-.017-.059.036 0 0 .059-.037-.035.05 0 0 .304-.475.418-.664.984-.986.566-.323 1.264-.888 1.968-.986.149-.016.891.086.984 0 .094-.087.013-.877 0-.986-.007-.055.036.048 0 0-.036-.049.06.034 0 0-.059-.035.073.014 0 0a14.037 14.037 0 0 0-.984 0c-.893.113-1.246.584-1.968.986-.722.401-1.58.386-1.968.986-.049.073-.014.905 0 .986.013.08-.072-.063 0 0 .072.062-.107-.024 0 0 .106.023.877.022.984 0zM424.976 125.97c.063.002.924.017.983 0 .059-.017-.044.033 0 0 .092-.066 0 .093 0 0s.092-.868 0-.934a5.631 5.631 0 0 0-1.967-.934c-.742-.194-2.162-.063-2.949 0-.066.009.055-.026 0 0-.056.026.037-.039 0 0-.038.039.013-.046 0 0-.014.046-.013.888 0 .934.027.09-.109-.051 0 0 .108.051.854.016.983 0 .621-.049 1.381-.154 1.966 0s.561.61.984.934c.047.041-.068-.023 0 0 .067.023-.076 0 0 0z" fill="#263238"/><path d="M387 179c-1.606 5.142-2.679 10.683-3.985 16-1.314 5.249-2.387 10.619-2.989 16v2c.013.552-.071.452 0 1 .148 1.283-.276 2.739 0 4 .544 2.612 1.207 5.33 1.993 8s2.203 5.306 2.989 8l1.992 8-3.985 2c-2.635-5.106-5.832-10.636-7.97-16-1.028-2.694-1.16-5.131-1.992-8-.416-1.429-1.646-2.407-1.993-4-.164-.843.067-2.143 0-3v-3c.098-2.984.556-6.048.997-9 .381-2.928.383-5.154.996-8 1.202-5.7 3.105-11.49 4.981-17l8.966 3z" fill="#FFC3BD"/><path d="M382.864 164.192c-3.912 1.145-8.864 14.889-8.864 14.889L389.757 190s5.585-10.845 3.94-15.882c-1.714-5.242-6.358-11.277-10.833-9.926z" fill="#EFC25A"/><path d="M382.864 164.192c-3.912 1.145-8.864 14.889-8.864 14.889L389.757 190s5.585-10.845 3.94-15.882c-1.714-5.242-6.358-11.277-10.833-9.926z" fill="#fff" opacity=".4"/><path d="M361.973 421.963c.223-.049-.168.103 0 0 .169-.103.91-.838.992-.976.079-.089 0 .101 0 0 0-.102.079.088 0 0-.824-.751-5.441-.985-5.949-.977-.052.001.044-.018 0 0s.021-.03 0 0c-.027.027 0-.032 0 0s-.027-.027 0 0c1.084.674 3.53 2.124 4.957 1.953zm-3.965-1.953c1.66 0 3.526.576 3.965.977.038.038 0-.045 0 0s.038-.039 0 0c-.06.103.132-.073 0 0-.131.073.172.951 0 .976-.754.12-2.47-1.1-3.965-1.953z" fill="#EFC25A"/><path d="M358.983 420.935c1.199-.304 2.68-1.333 2.953-1.931.068-.156.067.156 0 0-.066-.157.172-.876 0-.966-.152-.102-.792.038-.984 0-.192-.038-.791-.033-.985 0-1.551.22-2.888 2.802-2.953 2.897-.023.032 0-.037 0 0s-.023-.032 0 0c.023.031-.039-.018 0 0 .038.018-.045-.002 0 0 .607-.014 1.392.153 1.969 0zm.984-2.897h.985c.122-.021-.122-.024 0 0 .121.024-.098.902 0 .966.261.168.039-.095 0 0-.261.577-1.637 1.794-2.954 1.931.599-.807.939-2.454 1.969-2.897zM426.979 445.866c.794.041 2.3.28 2.965 0 .155-.09-.07-.765 0-.891.071-.125.03.133 0 0-.008-.078.067-.824 0-.89-.066-.065.109.037 0 0-1.125-.404-5.502.753-5.93.89-.041.011.025-.023 0 0-.025.024 0 .862 0 .891 0 .028-.025-.024 0 0 .025.023-.041-.011 0 0 1.002.145 1.938-.013 2.965 0zm1.977-1.781c.143-.006-.13-.039 0 0 .044.016.963.862.988.89.026.028.001-.032 0 0 .022.083.044-.079 0 0-.043.08-.891-.056-.988 0-.574.332-1.871.224-3.954 0 1.216-.416 2.592-.757 3.954-.89z" fill="#EFC25A"/><path d="M425.011 445.986c.951-.579 3.151-2.719 2.98-3.941 0-.296-.471-.908-.994-.985-.187-.029.18-.075 0 0s-.85-.167-.993 0c-.951 1.132-.984 4.81-.993 4.926-.001.045-.015-.041 0 0 .015.04-.028-.026 0 0 .031.026-.036.01 0 0zm1.986-3.941c.343 0 .994-.051.994 0 .095.733-2.01 2.171-2.98 2.956.076-1.223.407-2.02.993-2.956.175-.214.758.001.993 0z" fill="#EFC25A"/><path d="m389.018 222.039-.999 3.883c-.141.291.54.971.999.971H430c.366 0 .976.24 1 0v-3.883c0-.265-.611-.971-1-.971h-39.982c-.127-.011-.884-.058-1 0-.115.057.075-.111 0 0z" fill="#263238"/><path d="M393.998 227.908h-.928c-.153 0-.009.155 0 0v-5.845c0-.142.776 0 .928 0h.928c.162 0 .009-.142 0 0v5.845c0 .206-.767 0-.928 0z" fill="#EFC25A"/><path d="M393.998 227.908h-.928c-.153 0-.009.155 0 0v-5.845c0-.142.776 0 .928 0h.928c.162 0 .009-.142 0 0v5.845c0 .206-.767 0-.928 0z" fill="#000" opacity=".4"/><path d="M427.997 227.908h-.927c-.153 0-.009.155 0 0v-5.845c0-.142.775 0 .927 0h.928c.16 0 .017-.142 0 0v5.845c-.009.206-.767 0-.928 0z" fill="#EFC25A"/><path d="M427.997 227.908h-.927c-.153 0-.009.155 0 0v-5.845c0-.142.775 0 .927 0h.928c.16 0 .017-.142 0 0v5.845c-.009.206-.767 0-.928 0z" fill="#000" opacity=".4"/><path d="M410.003 227.908h-.928c-.16 0-.017.155 0 0v-5.845c0-.142.767 0 .928 0h.927c.153 0 .009-.142 0 0v5.845c-.008.206-.775 0-.927 0z" fill="#EFC25A"/><path d="M410.003 227.908h-.928c-.16 0-.017.155 0 0v-5.845c0-.142.767 0 .928 0h.927c.153 0 .009-.142 0 0v5.845c-.008.206-.775 0-.927 0z" fill="#000" opacity=".4"/><path d="m413 129.88 2-.88s-.795 1.413-2 .88z" fill="#263238"/><path d="m386.163 241 7.837 7-8.816 2s-4.23-4.948-2.939-9h3.918z" fill="#FFC3BD"/><path d="m396 255-8 1-4-8 10-1 2 8z" fill="#FFC3BD"/><path fill="#EFC25A" d="M440 36h193v60H440z"/><path d="m456.936 82.596-2.402-31.148 24.611-1.897 2.402 31.147-4.958.383-2.066-26.805-14.74 1.137 2.066 26.804-4.913.379zm44.108-2.96c-1.843.142-3.5-.171-4.971-.94a9.848 9.848 0 0 1-3.598-3.165l1.052 13.643-4.826.373-2.489-32.289 4.255-.328.318 4.124a9.98 9.98 0 0 1 3.168-3.554c1.341-.927 2.874-1.457 4.599-1.59 1.58-.122 3.052.088 4.418.63a10.227 10.227 0 0 1 3.621 2.325 12.192 12.192 0 0 1 2.532 3.644 12.085 12.085 0 0 1 1.179 4.41c.169 2.194-.116 4.23-.853 6.112-.709 1.878-1.796 3.419-3.263 4.62-1.439 1.17-3.154 1.832-5.142 1.985zm-1.898-4.002c1.024-.079 1.928-.369 2.714-.87a6.632 6.632 0 0 0 2.014-1.921 7.811 7.811 0 0 0 1.211-2.61c.249-.96.336-1.937.259-2.932a8.449 8.449 0 0 0-.756-2.942 7.141 7.141 0 0 0-1.725-2.339 7.208 7.208 0 0 0-2.41-1.49c-.88-.345-1.831-.477-2.855-.398-.614.047-1.248.214-1.903.5a7.674 7.674 0 0 0-1.812 1.11 7.257 7.257 0 0 0-1.424 1.566 5.087 5.087 0 0 0-.786 1.826l.464 6.01a9.679 9.679 0 0 0 1.819 2.42 8.72 8.72 0 0 0 2.464 1.619c.911.37 1.82.521 2.726.451zm16.382 2.444-1.766-22.9 4.826-.372 1.268 16.451 10.354-17.39 4.387-.34 1.769 22.945-4.826.372-1.241-16.1-10.253 16.986-4.518.348zm26.604-2.05-1.769-22.945 12.284-.947c1.462-.113 2.683.073 3.662.556 1.005.452 1.775 1.084 2.308 1.897.531.782.835 1.671.912 2.665.097 1.258-.11 2.392-.621 3.402-.51 1.01-1.317 1.808-2.419 2.393 1.346.279 2.465.87 3.358 1.771.921.87 1.438 2.052 1.553 3.543.104 1.346-.13 2.511-.701 3.497-.574.956-1.442 1.714-2.605 2.275-1.136.528-2.494.854-4.073.976l-11.889.916zm4.306-3.687 7.194-.554a3.237 3.237 0 0 0 1.634-.568 3.54 3.54 0 0 0 1.133-1.323 3.381 3.381 0 0 0 .31-1.7c-.049-.644-.239-1.203-.57-1.678a2.97 2.97 0 0 0-1.232-1.096c-.491-.257-1.058-.36-1.701-.31l-7.282.561.514 6.668zm-.755-9.783 6.493-.5c.614-.048 1.144-.236 1.59-.564.443-.358.776-.81.998-1.357a3.687 3.687 0 0 0 .267-1.697c-.066-.848-.4-1.558-1.003-2.13-.603-.57-1.358-.822-2.265-.752l-6.58.508.5 6.492zm31.214 11.23c-1.784.138-3.431-.044-4.94-.546a12.05 12.05 0 0 1-3.929-2.3 12.392 12.392 0 0 1-2.747-3.584 12.55 12.55 0 0 1-1.186-4.498c-.166-2.164.179-4.177 1.035-6.038a11.468 11.468 0 0 1 3.833-4.664c1.698-1.249 3.747-1.966 6.145-2.15 2.398-.186 4.503.211 6.314 1.19 1.838.946 3.309 2.274 4.412 3.984a11.936 11.936 0 0 1 1.89 5.635c.027.351.039.689.034 1.013-.006.294-.017.545-.03.752L569.347 64c.191 1.338.648 2.495 1.37 3.469a7.612 7.612 0 0 0 2.727 2.172 6.815 6.815 0 0 0 3.355.58 7.318 7.318 0 0 0 3.567-1.246c1.12-.733 1.844-1.642 2.172-2.727l4.216.867c-.412 1.15-1.095 2.217-2.048 3.203-.927.954-2.057 1.747-3.391 2.38-1.337.603-2.809.966-4.418 1.09zm-7.929-12.98 13.863-1.07c-.189-1.309-.659-2.435-1.408-3.377a6.71 6.71 0 0 0-2.683-2.176c-1.04-.509-2.174-.716-3.402-.62a6.623 6.623 0 0 0-3.266 1.134c-.952.632-1.71 1.485-2.274 2.558-.567 1.044-.844 2.227-.83 3.55zm29.029 10.912-1.441-18.688-7.59.585-.328-4.256 20.049-1.545.328 4.255-7.633.588 1.44 18.689-4.825.372zm16.132-12.409-1.569-20.355 4.825-.372 1.57 20.355-4.826.372zm.856 11.1-.464-6.01 4.826-.373.463 6.01-4.825.372z" fill="#fff"/><path d="M617.121 159.733c-2.81-2.927-8.122-15.153-2.938-20.375 5.185-5.222 10.415-.505 10.772 2.037.356 2.543-1.304 25.126-7.834 18.338z" fill="#263238"/><path d="M616 538h-13l-3-27h13l3 27z" fill="#FF8B7B"/><path d="M602.882 537.058h14.044c.244.004-.195-.132 0 0 .195.133.931.781 1.003.992l3.01 9.918c.085.227.04-.237 0 0s.156.798 0 .992c-.156.193-.767.885-1.003.992-.237.106-.739.005-1.004 0-4.771 0-11.086-1.041-17.054-.992-7.013 0-9.819.918-18.057.992-4.974 0-7.122-4.54-5.015-4.959 9.338-1.959 14.254-2.299 22.069-6.943.823-.538.993-.951 2.007-.992z" fill="#263238"/><path d="m600 511 2 14h11l-2-14h-11z" fill="#000" opacity=".2"/><path d="M599.016 538.897c1.346-.019 2.652.241 3.964 0 .062-.007-.043-.885 0-.921.043-.037-.006.05 0 0 .006-.049.03.042 0 0s.055.02 0 0c-.587-.235-6.488-2.548-7.928-1.843-.133.068.074.81 0 .921-.073.112-.005-.126 0 0-.003.216-.116.728 0 .922.117.194.78-.133.991 0 .874.454 1.934.983 2.973.921zm2.973-.921c-2.697.38-5.107.537-5.946 0-.145-.091.076-.787 0-.922-.075-.134-.011.147 0 0-.008-.045-.024.042 0 0 .025-.041-.049.024 0 0 .783-.38 3.808.195 5.946.922z" fill="#EFC25A"/><path d="M602.98 537.985c.065-.004-.052.036 0 0 .041-.028-.018.044 0 0 .017-.044.013.045 0 0 0-.197-1.053-5.268-3.977-4.973-.773.074-.953.724-.994.995-.207 1.23 3.398 3.388 4.971 3.978zm-3.977-3.978c1.765 0 2.679 1.864 2.982 2.983-1.627-.811-3.106-2.245-2.982-2.983 0 0-.524.049 0 0z" fill="#EFC25A"/><path d="m607 217.982-.998.999-.998.999c-.751.715-2.215 1.335-2.993 1.999-1.547 1.344-2.373 2.789-3.991 3.997-3.264 2.51-7.39 4.934-10.975 6.995-1.806 1.033-3.103 2.066-4.989 2.998-1.885.931-3.982 1.182-5.986 1.998-4.11 1.587-8.599 3.337-12.971 3.997h-.998c-.634.079-1.356.003-1.995 0-1.469-.013-2.627-.473-3.991-.999-1.353-.525-2.93-1.032-3.991-1.998-.845-.78-1.388-2.033-1.996-2.998-.842-1.4-1.586-2.427-1.995-3.997-.32-1.217-.852-2.75-.998-3.997-.24-2.157-.108-3.83 0-5.996.092-2.067.76-4.044.998-5.996.501-3.917 1.125-8.163 1.995-11.991.871-3.828 1.714-7.292 2.993-10.992l8.98 1.999c-.316 7.17-1.235 14.044-.998 20.984.044 3.223.34 6.833.998 9.993.13.584.768.445.998.999.185.434.013 1.114 0 1-.077-.195.158.141 0 0-.359-.336-1.535-.813-1.996-1-.473-.193-.484-.964-.997-.999h-.998.998c3.123-.776 6.069-1.653 8.979-2.998 3.045-1.422 6.15-3.206 8.98-4.996 2.862-1.837 5.266-3.891 7.982-5.996 1.319-1.046 2.739-1.888 3.991-2.998l1.996-1.998h.997l.998-.999L607 217.982z" fill="#FF8B7B"/><path d="M613.984 210.131c-.451-11.842-11.122-16.038-23.99-7.964-5.673 3.405-10.771 6.952-15.994 10.951L581.997 239s15.783-4.543 24.99-13.937c6.195-6.379 7.156-10.901 6.997-14.932z" fill="#263238"/><path d="M598 218s-7.5 10.665-10 22c3.471-1.564 6.816-3.86 10-6v-16z" fill="#000" opacity=".2"/><path d="M562.101 198 566 188l-12.673-3s-2.152 4.19-.975 12l9.749 1z" fill="#FF8B7B"/><path d="m567 177-11 1-3 7 13 4 1-12z" fill="#FF8B7B"/><path d="M599.059 304s-8.096 67.139-8.985 103c-.916 37.254 6.988 112 6.988 112h20.966s1.932-81.136 4.992-118c3.321-40.184 11.98-98 11.98-98l-35.941 1z" fill="#EFC25A"/><path d="M599.059 304s-8.096 67.139-8.985 103c-.916 37.254 6.988 112 6.988 112h20.966s1.932-81.136 4.992-118c3.321-40.184 11.98-98 11.98-98l-35.941 1z" fill="#fff" opacity=".6"/><path d="M623.93 321.817c-9.186 20.592-6.227 66.46-1.009 86.183.192-2.868-.204-5.513 0-8.017 2.131-26.392 6.387-59.968 9.079-80.171-2.501-3.685-5.199-4.444-8.07 2.005z" fill="#000" opacity=".2"/><path d="M619 519h-25l-2-8h27v8z" fill="#EFC25A"/><path d="M671 538h-13l-3-27h13l3 27z" fill="#FF8B7B"/><path d="M657.882 537.058h14.045c.243.005-.195-.133 0 0 .195.134.929.784 1.003.996l3.009 9.955c.082.228.041-.238 0 0-.041.237.156.801 0 .995-.155.195-.768-.107-1.003 0-.235.108-.74.998-1.003.996-4.785 0-11.086-1.045-17.054-.996-7.015 0-9.833.922-18.057.996-4.976 0-7.123-4.556-5.016-4.978 9.326-1.973 14.239-2.289 22.07-6.968.817-.542.997-.954 2.006-.996z" fill="#263238"/><path d="m655 511 2 14h11l-2-14h-11z" fill="#000" opacity=".2"/><path d="M653.016 538.898c1.347-.021 2.65.24 3.964 0 .061-.008-.041-.885 0-.922.041-.036-.002.049 0 0 .009-.047.028.043 0 0-.028-.042.054.021 0 0-.602-.235-6.501-2.548-7.929-1.843-.135.066.074.809 0 .922-.074.112-.008-.127 0 0-.003.214-.114.728 0 .921.114.194.783-.135.991 0 .882.453 1.929.982 2.974.922zm2.973-.922c-2.702.381-5.107.538-5.947 0-.144-.092.078-.787 0-.921-.077-.134-.005.147 0 0-.008-.046-.025.042 0 0s-.049.024 0 0c.784-.381 3.763.194 5.947.921z" fill="#EFC25A"/><path d="M656.987 537.989c.043-.002-.038.016 0 0 .038-.017-.027.029 0 0 .028-.029-.012.036 0 0 .012-.037.006.037 0 0 0-.197-1.053-5.272-3.984-4.977-.774.074-.94.725-.995.996-.194 1.231 3.404 3.389 4.979 3.981zm-3.984-3.981c1.756 0 2.684 1.865 2.988 2.985-1.631-.813-3.112-2.246-2.988-2.985 0 0-.525.049 0 0zM621 302s5.67 71.517 10 107c4.49 36.911 20 108 20 108h21s-5.722-81.167-8-118c-2.491-40.197-3-98-3-98l-40 1z" fill="#EFC25A"/><path d="M621 302s5.67 71.517 10 107c4.49 36.911 20 108 20 108h21s-5.722-81.167-8-118c-2.491-40.197-3-98-3-98l-40 1z" fill="#fff" opacity=".6"/><path d="M674 519h-25l-2-8h27v8z" fill="#EFC25A"/><path d="M597.062 202.084S588.989 234.335 599.06 303c18.809-.404 50.798-.83 59.941-.999.235-9.56-7.281-56.725.999-101.915-5.957-1.025-11.939-1.86-17.982-1.998-8.846-.322-18.15.295-26.974.999-6.043.713-12.123 1.358-17.982 2.997z" fill="#263238"/><path d="m658 232-10-8c.658 6.395 6.913 22.065 10 30-.054-6.953-.389-14.477 0-22z" fill="#000" opacity=".2"/><path d="m622.007 219.105-10.891 20.813c-.218.432-.076 1.503 0 1.982.077.479.649.65.99.991.342.342.515.918.99.991.476.073.563-.767.991-.991l6.93-3.964c.367-.199.575-.027.99 0 .416.027 1.643.746 1.981.991l5.94 4.955c.382.28 1.509.005 1.98 0 .472-.004.615.288.991 0 .376-.287.858-1.525.99-1.982.132-.456.164-.545 0-.991l-7.921-21.804c-.135-.418-.649-1.709-.99-1.982-.342-.274-.556.038-.99 0-.435-.039-.607-.21-.99 0-.384.21-.786.602-.991.991z" fill="#fff"/><path d="M638.015 168c-1.49 8.522-3.104 24.479 2.985 30 0 0-1.694 7.324-17.911 10-10.898-3.482-8.955-10-8.955-10 9.461-2.468 9.751-9.452 7.96-16l15.921-14z" fill="#FF8B7B"/><path d="m632.79 174-9.79 8c.429 1.522.815 3.426.979 5 3.537-.596 8.518-4.228 8.811-8 .18-1.525.365-3.509 0-5z" fill="#000" opacity=".2"/><path d="M642.804 155.977c-3.153 11.116-3.976 19.22-10.936 23.773-10.466 6.837-23.612-2.998-23.86-14.858-.236-10.646 4.839-26.638 16.901-28.726 2.649-.469 5.41.115 7.953.991 2.544.876 5.164 1.963 6.959 3.962s3.384 4.316 3.977 6.934c.593 2.617-.236 5.35-.994 7.924z" fill="#FF8B7B"/><path d="M638.964 162.38c-1.438-3.384-2.049-12.982 3.945-15.72 5.994-2.737 12.428 3.718 10.849 6.878-2.426 4.902-11.457 16.68-14.794 8.842z" fill="#263238"/><path d="M643.035 148c-1.468-3.52-20.152-6.006-22.602-9.796-2.909-4.506 9.483-5.227 17.689-2.939 7.209 2.018 12.634 4.868 11.792 9.796-.472 2.793-6.879 2.939-6.879 2.939z" fill="#263238"/><path d="M646 146.993s3.879 1.059 6-1.993c-.672 3.024-3.97 6.154-6 1.993zM626.017 134.655c-5.388-4.308-12.664.524-11.971 6.138C614.739 146.408 633 150 633 150s.171-9.622-6.983-15.345z" fill="#263238"/><path d="M614 141c.802 3.595 3.513 6.907 9 9-3.176-2.271-5.669-5.404-7-9h-2zM627.934 157c-.235 1.086-1.197 2.138-1.916 1.985-.719-.153-1.192-.914-.957-1.985.234-1.071 1.196-2.138 1.915-1.985.719.153 1.208.975.958 1.985zM615.939 153.999c-.25 1.073-1.199 2.14-1.919 1.986-.72-.153-1.194-.913-.959-1.986.234-1.073 1.199-2.125 1.919-1.987.72.138 1.194.914.959 1.987z" fill="#263238"/><path d="M618 156c-1.677 2.666-3.696 4.918-6 7 1.285 1.938 4 2 4 2l2-9z" fill="#FF5652"/><path d="M620.027 167.767a8.593 8.593 0 0 0 3.974 0c1.32-.308 2.952-.97 3.974-1.83.028-.026-.015-.88 0-.914.015-.035 0 .037 0 0 0-.038.015.034 0 0-.015-.035.028.026 0 0-.057-.051.078 0 0 0s-.936-.051-.994 0c-.958.774-1.761 1.551-2.98 1.829-1.219.279-2.754.277-3.974 0-.078-.016.067-.042 0 0s.017-.075 0 0-.044.85 0 .915c.043.064-.078-.016 0 0zM630.983 154.969c.106.02.883.034.984 0 .101-.033-.068.077 0 0 .068-.076-.015.098 0 0s.042-.889 0-.98c-.371-.779-1.25-1.425-1.967-1.961-.717-.537-1.063-.805-1.967-.981-.152-.018-.86-.085-.983 0s.024-.14 0 0c-.012.069-.018.913 0 .981.018.067-.045-.057 0 0 .044.056-.065-.037 0 0 .064.036.908-.011.983 0 .713.144 1.406.551 1.967.98.562.429.698 1.343.983 1.961.039.077-.071-.052 0 0 .072.053-.089-.017 0 0zM611.023 149.971c.097.026.892.032.986 0 .095-.032-.059.079 0 0 .39-.513.402-.691.987-.976.584-.285 1.319-.979 1.972-.976.137.013.88.086.986 0 .107-.086-.013.135 0 0 .014-.134.088-.871 0-.975-.087-.105.138.012 0 0-.826-.024-2.214.622-2.958.975-.745.353-1.479.326-1.973.976-.044.052.019-.064 0 0s-.008.909 0 .976c.008.066-.034-.058 0 0s-.055-.04 0 0c.056.048-.073-.015 0 0z" fill="#263238"/><path d="M663.929 208c2.386 4.093 4.898 7.92 6.97 12s4.205 8.804 5.975 13c1.77 4.196 3.484 7.585 4.979 12 1.554 4.403 2.917 9.459 3.983 14l.996 3c.35 1.65.054 3.315 0 5-.111 3.13-.725 6.125-1.992 9-2.226 4.844-6.028 9.345-9.958 13-3.505 3.322-6.871 6.389-10.953 9-1.98 1.287-3.917 2.867-5.975 4-2.059 1.133-4.676 2.009-6.971 3L647 298c1.587-1.287 3.353-2.61 4.979-4 1.626-1.39 3.405-3.584 4.979-5 3.038-2.767 5.392-5.812 7.966-9 2.29-2.734 4.795-5.656 5.975-9 .406-1.246.094-2.695 0-4-.038-.525.162-.499 0-1l-.996-3c-2.649-7.997-6.319-16.386-9.958-24-1.796-3.861-3.064-7.139-4.979-11-1.914-3.861-4.021-8.332-5.974-12l14.937-8z" fill="#FF8B7B"/><path d="M662.807 197.293C674.141 199.579 682 228.104 682 228.104L661.796 245c-6.442-6.698-10.703-14.446-14.142-22.86-5.369-13.83 3.03-27.311 15.153-24.847z" fill="#263238"/><path d="M649 299h-13l8 13s9.183-2.436 10-7l-5-6z" fill="#FF8B7B"/><path d="m629 306 7 10 9-5-8-12-8 7zM649.225 167.898c-1.381 2.464-3.228 4.113-5.998 4.917-3.682 1.043-5.984-2.519-4.999-5.9.895-3.041 4.316-7.324 7.998-6.884 3.681.44 4.645 4.838 2.999 7.867z" fill="#FF8B7B"/><path d="M219 506.085c0 .19-8.671.915-20 .915s-21-.725-21-.915c0-.191 9.671 0 21 0s20-.178 20 0zM196 535c1.895-2.889 3.738-5.412 6-8 2.082-2.746 4.582-5.568 7-8-1.893 2.895-3.736 5.409-6 8-2.071 2.751-4.572 5.584-7 8zM190.004 534.998c-.151-.121 3.762-4.918 8.997-10.997 5.235-6.079 9.858-11.171 9.995-10.997.138.175-3.761 4.918-8.996 10.997s-9.845 11.118-9.996 10.997zM119 506.085c0 .19-9.685.915-21 .915s-20-.725-20-.915c0-.191 8.671 0 20 0s21-.178 21 0z" fill="#263238"/><path d="M288 476h-51v80h51v-80z" fill="#F5F5F5"/><path d="M287.99 557a16.24 16.24 0 0 1 0-.987v-4.936c0-3.887.096-9.671 0-16.783 0-14.17.069-33.776 0-57.257h-50.864c-.096.067 1.326-1.312.997-.988V557h-.997H288.988h-51.862v-80.951c-.315.311.068-.081 0 0h51.862c-.069 23.563.041 44.021 0 58.245 0 7.031.027 12.923 0 16.783v4.936c0 .283-.998.987-.998.987z" fill="#263238"/><path d="M55 510H4v46h51v-46z" fill="#FAFAFA"/><path d="M54.964 557v-3c0-2.219.081-5.973 0-10 0-8.123-.932-19.123-1-33h1H4h1v46H4h50.964H4v-47h50.964c0 13.945.04 25.836 0 34v13z" fill="#263238"/><path d="M56 486.619V556h182V444L56 486.619zm62 61.452H80V495.54h38v52.531zm100 0h-38V495.54h38v52.531z" fill="#F5F5F5"/><path d="M216.991 549.972c-.006-.091-.006.091 0 0v-3.994c0-2.593.082-6.359 0-10.985 0-9.388.068-23.294 0-38.945l.999.999h-38.986c-.083 0 1.315-1.312.999-.999v53.924h-.999H216.991c.242-.02.757-.02.999 0-.219.022-.78.022-.999 0H179.004v-53.924h38.986c-.068 15.747.042 29.503 0 38.945 0 4.64.014 8.392 0 10.985v3.994c-.09.086-.889-.059-.999 0zM117.958 549.974c-.006-.091-.006.09 0 0v-3.995c0-2.585.095-6.371 0-10.984 0-9.363-.942-22.34-.996-37.948h.996-38.833c-.095 0 1.322-1.312.996-.999v53.926h-.996H116.962c.235-.021.761-.021.996 0a7.197 7.197 0 0 1-.996 0H79.125V496.048c-.312.313.068-.081 0 0h38.833c0 15.703.04 29.53 0 38.947 0 4.626.081 8.399 0 10.984v2.996c-.014.3.013.999 0 .999z" fill="#263238"/><path d="M55.055 486.623h1l2.998-.991 9.998-1.983 36.988-8.921L237 444v113H55.055c0-21.936-.028-39.512 0-51.544 0-5.989-.069-10.72 0-13.877V486.623v18.833c0 12.018-.123 29.662 0 51.544v-.991H237l-1 .991V444l1 .991-130.961 29.737-36.989 8.921-9.996 1.983-3 .991h-1z" fill="#263238"/><path d="M163 502h-29v55h29v-55z" fill="#FAFAFA"/><path d="M164 502.017v1c0 .163 0-.313 0 0v2.999c0 2.717-.097 6.255 0 10.996 0 9.688-.07 24.091 0 39.988h-30V502.017h29a7.255 7.255 0 0 1 1 0h-30 1V556h-1 29c.07-15.801-.042-29.368 0-38.988 0-4.782-.083-8.333 0-10.996v-3.999c.111-.013.889-.004 1 0zM96 535c1.895-2.889 3.738-5.412 6-8 2.082-2.746 4.582-5.568 7-8-1.893 2.895-3.736 5.409-6 8-2.071 2.751-4.572 5.584-7 8zM90.004 534.998c-.15-.121 3.765-4.918 8.997-10.997 5.231-6.079 9.858-11.171 9.995-10.997.138.175-3.765 4.918-8.996 10.997s-9.845 11.118-9.996 10.997zM317.919 516c.182 0 0 8.95 0 20s.182 20 0 20-.919-8.963-.919-20 .724-20 .919-20z" fill="#263238"/><path d="M325.897 525.872c11.773-4.769 17.381-18.151 12.527-29.89-4.854-11.738-18.334-17.387-30.107-12.618-11.773 4.77-17.382 18.152-12.527 29.89 4.854 11.739 18.334 17.388 30.107 12.618z" fill="#FAFAFA"/><path d="M339.959 508.507c-.126-1.893-.567-7.192-.999-9.037-.535-2.147-.855-3.134-1.998-5.02-1.493-2.511-3.686-5.267-5.995-7.028-2.987-2.307-6.282-3.444-9.991-4.016-3.709-.573-7.464-.298-10.99 1.004-2.032.737-4.276 1.687-5.995 3.012-.898.673-2.2 1.214-2.997 2.008-.799.838-1.318 2.072-1.998 3.012-2.824 3.899-3.997 11.223-3.997 16.065 0 4.841 1.173 9.153 3.997 13.052 1.311 1.861 3.168 3.682 4.995 5.02 1.719 1.325 3.963 2.275 5.995 3.012 4.908 1.804 10.066 1.77 14.987 0 4.92-1.769 9.288-5.5 11.989-10.04 1.143-1.886 1.463-2.873 1.998-5.02.431-1.841.871-4.137.999-6.024.021.123.021-.123 0 0v1.004c.001.599.091 1.416 0 2.008-.088.812-.799 2.22-.999 3.012-.504 2.189-.869 4.09-1.998 6.024-1.647 2.86-4.332 5.115-6.994 7.028-2.662 1.914-5.79 3.392-8.992 4.016-4.048.778-8.112.414-11.989-1.004-2.1-.745-4.219-1.65-5.995-3.012-1.889-1.369-2.649-3.1-3.996-5.02-2.92-4.015-4.996-9.064-4.996-14.056 0-4.993 2.076-13.054 4.996-17.069 1.347-1.92 2.107-3.651 3.996-5.02 1.776-1.362 3.895-2.267 5.995-3.012 3.872-1.419 7.945-1.783 11.989-1.004 3.205.622 6.327 2.102 8.992 4.016 2.665 1.913 5.346 4.166 6.994 7.028 1.129 1.934 1.494 3.835 1.998 6.024.2.792.911 2.2.999 3.012.091.592.001 1.409 0 2.008v4.017c.029.126.011-.13 0 0zM353.883 531c.222 4.157.073 8.83 0 13 .073 4.17.222 7.843 0 12-.223-4.157-.951-7.83-.878-12-.073-4.17.655-8.843.878-13z" fill="#263238"/><path d="M354 538c8.008 0 14-5.992 14-14s-5.992-15-14-15-15 6.992-15 15 6.992 14 15 14z" fill="#FAFAFA"/><path d="M367.842 523.002c-.117-1.103-.738-1.885-.994-2.967-.812-2.922-2.47-6.099-4.973-7.91-1.702-1.247-3.867-1.612-5.967-1.978-2.411-.421-4.66-.81-6.962 0-1.239.434-2.929 1.205-3.979 1.978-1.11.781-2.187 1.883-2.983 2.966-1.722 2.265-1.989 6.087-1.989 8.9 0 2.813.267 5.646 1.989 7.911.799 1.08 1.876 2.182 2.983 2.966 1.045.776 2.737 1.556 3.979 1.978 2.15.769 4.694.323 6.962 0 2.268-.322 4.135-.642 5.967-1.978 2.504-1.816 4.161-4.984 4.973-7.91.258-1.081.88-2.852.994-3.956.092 1.124.295 2.865 0 3.956-.625 2.559-2.017 5.103-3.978 6.922-1.96 1.819-5.29 3.46-7.956 3.955-2.513.475-4.556-.143-6.962-.989-1.303-.435-2.88-1.172-3.979-1.978-1.169-.816-2.14-1.833-2.983-2.966-1.818-2.376-2.984-5.943-2.984-8.9 0-2.957 1.166-5.535 2.984-7.911.839-1.132 1.811-2.158 2.983-2.966 1.102-.805 2.678-1.533 3.979-1.978 2.409-.834 4.449-1.451 6.962-.989 2.175.396 4.208 1.664 5.967 2.967 2.548 1.894 5.241 4.879 5.967 7.91.3 1.107.097 1.827 0 2.967z" fill="#263238"/><rect y="556" width="652" height="32" rx="3" fill="#FFF2CC"/></svg>