<svg xmlns="http://www.w3.org/2000/svg" width="24" height="24" fill="none"><path fill="#FF6894" d="M22.312 17.477 13.726 3.53a2.17 2.17 0 0 0-.817-.754A2.354 2.354 0 0 0 11.8 2.5c-.389 0-.77.095-1.109.276-.337.18-.619.44-.816.754L1.29 17.477a1.88 1.88 0 0 0-.289.998c0 .35.1.695.289.997.194.316.475.578.814.758.338.181.722.274 1.112.27h17.171c.39.004.773-.09 1.111-.27a2.13 2.13 0 0 0 .813-.758c.19-.302.29-.646.29-.997 0-.35-.099-.695-.288-.998ZM21.29 18.92a.998.998 0 0 1-.383.354 1.082 1.082 0 0 1-.52.124H3.214a1.082 1.082 0 0 1-.522-.124.998.998 0 0 1-.382-.354.831.831 0 0 1 0-.892L10.896 4.08c.094-.146.227-.266.385-.35a1.112 1.112 0 0 1 1.039 0c.158.084.29.204.385.35l8.586 13.948a.832.832 0 0 1 0 .892Zm-10.079-5.584V9.663c0-.146.063-.286.173-.39a.61.61 0 0 1 .416-.161.61.61 0 0 1 .417.161c.11.104.173.244.173.39v3.673a.534.534 0 0 1-.173.39.61.61 0 0 1-.417.162.61.61 0 0 1-.416-.162.534.534 0 0 1-.173-.39Zm1.571 3.307c0 .181-.057.359-.165.51a.97.97 0 0 1-.44.338c-.18.07-.378.088-.568.052a1.004 1.004 0 0 1-.503-.25.902.902 0 0 1-.268-.471.864.864 0 0 1 .055-.53.935.935 0 0 1 .362-.413 1.031 1.031 0 0 1 1.24.114.89.89 0 0 1 .287.65Z"/></svg>