<svg width="16" height="34" viewBox="0 0 16 34" fill="none" xmlns="http://www.w3.org/2000/svg">
<path fillRule="evenodd" clipRule="evenodd" d="M8.27378 27.5612L8.27377 27.5612L2.88957 32.8976C2.39387 33.3889 1.59375 33.3853 1.10245 32.8896C0.61115 32.3939 0.614721 31.5938 1.11042 31.1025L6.39933 25.8606C8.52895 23.7499 10.0496 22.2401 11.0892 20.9455C12.1129 19.6709 12.566 18.7279 12.6868 17.7802C12.7528 17.2622 12.7528 16.7379 12.6868 16.2198C12.566 15.2722 12.1129 14.3292 11.0892 13.0546C10.0496 11.76 8.52894 10.2502 6.39933 8.1395L1.11042 2.89757C0.61472 2.40628 0.61115 1.60615 1.10245 1.11045C1.59375 0.614751 2.39387 0.611181 2.88957 1.10248L8.27376 6.43883L8.27377 6.43885C10.3166 8.46349 11.9274 10.0619 13.0598 11.472C14.2264 12.9246 14.99 14.3004 15.1939 15.9002C15.287 16.6305 15.287 17.3695 15.1939 18.0998C14.99 19.6996 14.2264 21.0755 13.0598 22.5281C11.9274 23.9382 10.3166 25.5366 8.27378 27.5612Z" fill="#1C1C1C"/>
</svg>
