<svg width="52" height="55" viewBox="0 0 52 55" fill="none" xmlns="http://www.w3.org/2000/svg">
<path fillRule="evenodd" clipRule="evenodd" d="M11.2142 -0.046253L10.3132 0.67455C10.562 0.985555 10.5115 1.43937 10.2005 1.68818L3.95052 6.68818C3.63952 6.93698 3.1857 6.88656 2.9369 6.57555C2.68809 6.26455 2.73852 5.81073 3.04952 5.56192L9.29952 0.561924C9.61053 0.313118 10.0643 0.363543 10.3131 0.674548L11.2142 -0.046253ZM41.6869 0.674548C41.9357 0.363543 42.3895 0.313118 42.7005 0.561923L48.9505 5.56192C49.2615 5.81073 49.3119 6.26455 49.0631 6.57555C48.8143 6.88656 48.3605 6.93698 48.0495 6.68818L41.7995 1.68818C41.4885 1.43937 41.4381 0.985554 41.6869 0.674551L40.9394 0.0765631L41.6869 0.674548ZM26 4.3462C12.5912 4.3462 1.72118 15.2162 1.72118 28.625C1.72118 42.0339 12.5912 52.9039 26 52.9039C39.4089 52.9039 50.2789 42.0339 50.2789 28.625C50.2789 15.2162 39.4089 4.3462 26 4.3462ZM0.27887 28.625C0.27887 14.4196 11.7946 2.90389 26 2.90389C40.2054 2.90389 51.7212 14.4196 51.7212 28.625C51.7212 42.8304 40.2054 54.3462 26 54.3462C11.7946 54.3462 0.27887 42.8304 0.27887 28.625ZM26 17.9039C26.3983 17.9039 26.7212 18.2268 26.7212 18.625V29.1397C26.7212 30.5987 26.1637 32.0027 25.1628 33.0643L21.5247 36.9231C21.2515 37.2129 20.7951 37.2263 20.5053 36.9531C20.2155 36.6799 20.2021 36.2234 20.4753 35.9336L24.1133 32.0749C24.8619 31.2809 25.2789 30.2309 25.2789 29.1397V18.625C25.2789 18.2268 25.6017 17.9039 26 17.9039Z" fill="#B5B3B2"/>
</svg>
