<svg width="52" height="52" viewBox="0 0 52 52" fill="none" xmlns="http://www.w3.org/2000/svg">
<path fillRule="evenodd" clipRule="evenodd" d="M24.4058 10.3894L25.2788 10.1703V8.49996C25.2788 8.10168 25.6017 7.77881 26 7.77881C26.3983 7.77881 26.7211 8.10168 26.7211 8.49996V10.0959L27.6878 10.2548C30.0052 10.6357 32.1378 12.0124 33.4037 14.205L34.3427 15.8313C34.5418 16.1762 34.4236 16.6172 34.0787 16.8164C33.7338 17.0155 33.2927 16.8973 33.0936 16.5524L32.1547 14.9262C31.2504 13.36 29.8038 12.2963 28.1881 11.8407L26.7211 11.4271L26.7211 25.4968L28.4244 26.1232C34.8805 28.4979 35.6377 37.3252 29.6803 40.7647C29.0106 41.1514 28.3087 41.4315 27.5943 41.6107L26.7211 41.8297V43.5C26.7211 43.8982 26.3983 44.2211 26 44.2211C25.6017 44.2211 25.2788 43.8982 25.2788 43.5V41.9041L24.3122 41.7451C21.995 41.3641 19.8626 39.9874 18.5968 37.7949L17.6579 36.1687C17.4587 35.8238 17.5769 35.3827 17.9218 35.1836C18.2668 34.9844 18.7078 35.1026 18.907 35.4475L19.8459 37.0738C20.75 38.6397 22.1963 39.7034 23.8118 40.1591L25.2788 40.5729V26.5031L23.5761 25.8767C17.12 23.502 16.3628 14.6747 22.3203 11.2352C22.9898 10.8487 23.6915 10.5685 24.4058 10.3894ZM25.2788 25.0707L25.2788 11.4414L23.6524 12.1717C23.4456 12.2645 23.2417 12.3687 23.0414 12.4843C18.2727 15.2375 18.7372 22.1818 23.6589 24.3553L25.2788 25.0707ZM26.7211 26.9292V40.5586L28.3475 39.8286C28.5545 39.7357 28.7587 39.6314 28.9591 39.5157C33.7281 36.7623 33.2633 29.8175 28.341 27.6443L26.7211 26.9292ZM26 1.72112C12.5912 1.72112 1.72115 12.5911 1.72115 26C1.72115 39.4088 12.5912 50.2788 26 50.2788C39.4088 50.2788 50.2788 39.4088 50.2788 26C50.2788 12.5911 39.4088 1.72112 26 1.72112ZM0.278839 26C0.278839 11.7946 11.7946 0.278809 26 0.278809C40.2054 0.278809 51.7211 11.7946 51.7211 26C51.7211 40.2054 40.2054 51.7211 26 51.7211C11.7946 51.7211 0.278839 40.2054 0.278839 26Z" fill="#B5B3B2"/>
</svg>
