<svg width="38" height="50" viewBox="0 0 38 50" fill="none" xmlns="http://www.w3.org/2000/svg">
<path fill-rule="evenodd" clip-rule="evenodd" d="M19 1.72112C13.8754 1.72112 9.72115 5.8754 9.72115 11C9.72115 16.1245 13.8754 20.2788 19 20.2788C24.1246 20.2788 28.2788 16.1245 28.2788 11C28.2788 5.8754 24.1246 1.72112 19 1.72112ZM8.27885 11C8.27885 5.07883 13.0789 0.278809 19 0.278809C24.9211 0.278809 29.7212 5.07883 29.7212 11C29.7212 16.9211 24.9211 21.7211 19 21.7211C13.0789 21.7211 8.27885 16.9211 8.27885 11ZM0.778847 38.5C0.778847 32.5788 5.57887 27.7788 11.5 27.7788H26.5C32.4211 27.7788 37.2212 32.5788 37.2212 38.5C37.2212 44.4211 32.4211 49.2211 26.5 49.2211H11.5C5.57887 49.2211 0.778847 44.4211 0.778847 38.5ZM11.5 29.2211C6.37544 29.2211 2.22115 33.3754 2.22115 38.5C2.22115 43.6245 6.37544 47.7788 11.5 47.7788H26.5C31.6246 47.7788 35.7788 43.6245 35.7788 38.5C35.7788 33.3754 31.6246 29.2211 26.5 29.2211H11.5Z" fill="#B5B3B2"/>
</svg>
