<svg xmlns="http://www.w3.org/2000/svg" width="16" height="34" fill="none">
  <path fill="#1C1C1C" fill-rule="evenodd"
    d="M8.274 27.561 2.89 32.898a1.264 1.264 0 0 1-1.78-1.796l5.29-5.241c2.129-2.111 3.65-3.62 4.69-4.916 1.023-1.274 1.476-2.217 1.597-3.165a6.173 6.173 0 0 0 0-1.56c-.121-.948-.574-1.89-1.598-3.165C10.05 11.76 8.53 10.25 6.4 8.14L1.11 2.897a1.264 1.264 0 1 1 1.78-1.796L8.274 6.44c2.043 2.024 3.653 3.623 4.786 5.033 1.166 1.453 1.93 2.828 2.134 4.428.093.73.093 1.47 0 2.2-.204 1.6-.968 2.976-2.134 4.428-1.133 1.41-2.743 3.009-4.786 5.033Z"
    clip-rule="evenodd" />
</svg>