<svg xmlns="http://www.w3.org/2000/svg" width="16" height="34" fill="none"><path fill="#1C1C1C" fill-rule="evenodd" d="M7.032 28.262Zm-4.86-5.116.768-.618C1.774 21.076 1.01 19.7.806 18.1a8.698 8.698 0 0 1 0-2.2c.204-1.6.968-2.975 2.134-4.428 1.133-1.41 2.743-3.009 4.786-5.033l5.384-5.337a1.264 1.264 0 0 1 1.78 1.796L9.6 8.14c-2.129 2.11-3.65 3.62-4.69 4.915-1.023 1.274-1.476 2.217-1.597 3.165a6.17 6.17 0 0 0 0 1.56c.121.948.574 1.89 1.598 3.165 1.04 1.295 2.56 2.805 4.69 4.916l5.289 5.241a1.264 1.264 0 0 1-1.78 1.796L7.726 27.56c-2.043-2.024-3.653-3.623-4.786-5.033l-.769.618Z" clip-rule="evenodd"/></svg>