<svg xmlns="http://www.w3.org/2000/svg" width="52" height="55" fill="none"><path fill="#B5B3B2" fill-rule="evenodd" d="m11.214-.046-.9.72a.721.721 0 0 1-.114 1.014l-6.25 5a.721.721 0 1 1-.9-1.126l6.25-5a.721.721 0 0 1 1.013.113l.901-.721Zm30.473.72A.721.721 0 0 1 42.7.563l6.25 5a.721.721 0 0 1-.901 1.126l-6.25-5a.721.721 0 0 1-.113-1.013l-.748-.598.748.598ZM26 4.347c-13.409 0-24.279 10.87-24.279 24.279S12.591 52.904 26 52.904s24.279-10.87 24.279-24.279S39.409 4.346 26 4.346ZM.279 28.625C.279 14.42 11.795 2.904 26 2.904S51.721 14.42 51.721 28.625 40.205 54.346 26 54.346.279 42.83.279 28.625ZM26 17.904c.398 0 .721.323.721.721V29.14a5.721 5.721 0 0 1-1.558 3.924l-3.638 3.86a.721.721 0 1 1-1.05-.99l3.638-3.86a4.279 4.279 0 0 0 1.166-2.934V18.625c0-.398.323-.721.721-.721Z" clip-rule="evenodd"/></svg>