<svg xmlns="http://www.w3.org/2000/svg" width="38" height="50" fill="none"><path fill="#B5B3B2" fill-rule="evenodd" d="M19 1.721a9.279 9.279 0 1 0 0 18.558A9.279 9.279 0 0 0 19 1.72ZM8.279 11C8.279 5.079 13.079.279 19 .279S29.721 5.079 29.721 11 24.921 21.721 19 21.721 8.279 16.921 8.279 11Zm-7.5 27.5c0-5.921 4.8-10.721 10.721-10.721h15c5.921 0 10.721 4.8 10.721 10.721s-4.8 10.721-10.721 10.721h-15C5.579 49.221.779 44.421.779 38.5ZM11.5 29.221a9.279 9.279 0 0 0 0 18.558h15a9.279 9.279 0 0 0 0-18.558h-15Z" clip-rule="evenodd"/></svg>