<svg xmlns="http://www.w3.org/2000/svg" width="50" height="56" fill="none"><path fill="#B5B3B2" fill-rule="evenodd" d="M17.573 6.397c2.132-7.472 12.721-7.472 14.854 0a6.281 6.281 0 0 0 7.568 4.37c7.537-1.89 12.832 7.281 7.427 12.864a6.282 6.282 0 0 0 0 8.738c5.405 5.583.11 14.754-7.427 12.865a6.281 6.281 0 0 0-7.568 4.369c-2.133 7.472-12.722 7.472-14.854 0a6.281 6.281 0 0 0-7.568-4.37c-7.537 1.89-12.832-7.28-7.427-12.864a6.281 6.281 0 0 0 0-8.738c-5.405-5.583-.11-14.754 7.427-12.864a6.282 6.282 0 0 0 7.568-4.37Zm13.467.396c-1.734-6.077-10.346-6.077-12.08 0a7.724 7.724 0 0 1-9.306 5.373c-6.13-1.537-10.436 5.921-6.04 10.462a7.724 7.724 0 0 1 0 10.744c-4.396 4.54-.09 12 6.04 10.463a7.724 7.724 0 0 1 9.305 5.372c1.735 6.077 10.347 6.077 12.081 0a7.724 7.724 0 0 1 9.305-5.372c6.13 1.536 10.436-5.922 6.04-10.463a7.724 7.724 0 0 1 0-10.744c4.396-4.54.09-11.999-6.04-10.462a7.724 7.724 0 0 1-9.305-5.373ZM16.779 28a8.221 8.221 0 1 1 16.442 0 8.221 8.221 0 0 1-16.442 0Zm8.22-6.779a6.779 6.779 0 1 0 0 13.558 6.779 6.779 0 0 0 0-13.558Z" clip-rule="evenodd"/></svg>